<svg width="1440" height="1024" viewBox="0 0 1440 1024" fill="none" xmlns="http://www.w3.org/2000/svg">
<g clip-path="url(#clip0_7924_3904)">
<rect width="1440" height="1024" fill="#131313"/>
<g opacity="0.8">
<g filter="url(#filter0_f_7924_3904)">
<ellipse cx="467.623" cy="511.966" rx="212.623" ry="454.966" fill="#02FBFE"/>
</g>
<g filter="url(#filter1_f_7924_3904)">
<ellipse cx="973.377" cy="511.966" rx="212.623" ry="454.966" fill="#FFA227"/>
</g>
</g>
<g opacity="0.6">
<g clip-path="url(#clip1_7924_3904)">
<path d="M1440 0H1093.04V55.3956H1440V0Z" fill="url(#paint0_linear_7924_3904)"/>
<path d="M1226.96 0H880.001V55.3956H1226.96V0Z" fill="url(#paint1_linear_7924_3904)"/>
<path d="M1540.43 53.938H1193.48V109.334H1540.43V53.938Z" fill="url(#paint2_linear_7924_3904)"/>
<path d="M1327.39 53.938H980.434V109.334H1327.39V53.938Z" fill="url(#paint3_linear_7924_3904)"/>
<path d="M1640.87 109.333H1293.91V164.729H1640.87V109.333Z" fill="url(#paint4_linear_7924_3904)"/>
<path d="M1427.82 109.333H1080.87V164.729H1427.82V109.333Z" fill="url(#paint5_linear_7924_3904)"/>
<path d="M1741.3 163.271H1394.35V218.667H1741.3V163.271Z" fill="url(#paint6_linear_7924_3904)"/>
<path d="M1528.26 163.271H1181.31V218.667H1528.26V163.271Z" fill="url(#paint7_linear_7924_3904)"/>
<path d="M1628.7 218.667H1281.74V274.062H1628.7V218.667Z" fill="url(#paint8_linear_7924_3904)"/>
<path d="M1729.13 272.604H1382.17V328H1729.13V272.604Z" fill="url(#paint9_linear_7924_3904)"/>
</g>
<g clip-path="url(#clip2_7924_3904)">
<path d="M0 0H346.957V55.3956H0V0Z" fill="url(#paint10_linear_7924_3904)"/>
<path d="M213.043 0H559.999V55.3956H213.043V0Z" fill="url(#paint11_linear_7924_3904)"/>
<path d="M-100.434 53.938H246.523V109.334H-100.434V53.938Z" fill="url(#paint12_linear_7924_3904)"/>
<path d="M112.609 53.938H459.566V109.334H112.609V53.938Z" fill="url(#paint13_linear_7924_3904)"/>
<path d="M-200.871 109.333H146.085V164.729H-200.871V109.333Z" fill="url(#paint14_linear_7924_3904)"/>
<path d="M12.1758 109.333H359.132V164.729H12.1758V109.333Z" fill="url(#paint15_linear_7924_3904)"/>
<path d="M-301.305 163.271H45.6518V218.667H-301.305V163.271Z" fill="url(#paint16_linear_7924_3904)"/>
<path d="M-88.2617 163.271H258.695V218.667H-88.2617V163.271Z" fill="url(#paint17_linear_7924_3904)"/>
<path d="M-188.695 218.667H158.261V274.062H-188.695V218.667Z" fill="url(#paint18_linear_7924_3904)"/>
<path d="M-289.129 272.604H57.8276V328H-289.129V272.604Z" fill="url(#paint19_linear_7924_3904)"/>
</g>
</g>
<path opacity="0.5" d="M586 924H855V1024H586V924Z" fill="url(#paint20_linear_7924_3904)"/>
<g opacity="0.5" filter="url(#filter2_f_7924_3904)">
<path d="M1197 728H1440V867H1197V728Z" fill="url(#paint21_linear_7924_3904)"/>
</g>
<g opacity="0.5" filter="url(#filter3_f_7924_3904)">
<path d="M155 728V828H0V728H155Z" fill="url(#paint22_linear_7924_3904)"/>
</g>
</g>
<defs>
<filter id="filter0_f_7924_3904" x="-157.86" y="-355.86" width="1250.97" height="1735.65" filterUnits="userSpaceOnUse" color-interpolation-filters="sRGB">
<feFlood flood-opacity="0" result="BackgroundImageFix"/>
<feBlend mode="normal" in="SourceGraphic" in2="BackgroundImageFix" result="shape"/>
<feGaussianBlur stdDeviation="206.43" result="effect1_foregroundBlur_7924_3904"/>
</filter>
<filter id="filter1_f_7924_3904" x="347.894" y="-355.86" width="1250.97" height="1735.65" filterUnits="userSpaceOnUse" color-interpolation-filters="sRGB">
<feFlood flood-opacity="0" result="BackgroundImageFix"/>
<feBlend mode="normal" in="SourceGraphic" in2="BackgroundImageFix" result="shape"/>
<feGaussianBlur stdDeviation="206.43" result="effect1_foregroundBlur_7924_3904"/>
</filter>
<filter id="filter2_f_7924_3904" x="1193" y="724" width="251" height="147" filterUnits="userSpaceOnUse" color-interpolation-filters="sRGB">
<feFlood flood-opacity="0" result="BackgroundImageFix"/>
<feBlend mode="normal" in="SourceGraphic" in2="BackgroundImageFix" result="shape"/>
<feGaussianBlur stdDeviation="2" result="effect1_foregroundBlur_7924_3904"/>
</filter>
<filter id="filter3_f_7924_3904" x="-16" y="712" width="187" height="132" filterUnits="userSpaceOnUse" color-interpolation-filters="sRGB">
<feFlood flood-opacity="0" result="BackgroundImageFix"/>
<feBlend mode="normal" in="SourceGraphic" in2="BackgroundImageFix" result="shape"/>
<feGaussianBlur stdDeviation="8" result="effect1_foregroundBlur_7924_3904"/>
</filter>
<linearGradient id="paint0_linear_7924_3904" x1="1093.04" y1="27.6978" x2="1440" y2="27.6978" gradientUnits="userSpaceOnUse">
<stop stop-color="#02FBFE"/>
<stop offset="0.5" stop-color="#F28706"/>
<stop offset="1"/>
</linearGradient>
<linearGradient id="paint1_linear_7924_3904" x1="880" y1="27.6978" x2="1226.96" y2="27.6978" gradientUnits="userSpaceOnUse">
<stop stop-color="#02FBFE"/>
<stop offset="0.5" stop-color="#F28706"/>
<stop offset="1"/>
</linearGradient>
<linearGradient id="paint2_linear_7924_3904" x1="1193.48" y1="81.6358" x2="1540.43" y2="81.6358" gradientUnits="userSpaceOnUse">
<stop stop-color="#02FBFE"/>
<stop offset="0.5" stop-color="#F28706"/>
<stop offset="1"/>
</linearGradient>
<linearGradient id="paint3_linear_7924_3904" x1="980.434" y1="81.6358" x2="1327.39" y2="81.6358" gradientUnits="userSpaceOnUse">
<stop stop-color="#02FBFE"/>
<stop offset="0.5" stop-color="#F28706"/>
<stop offset="1"/>
</linearGradient>
<linearGradient id="paint4_linear_7924_3904" x1="1293.91" y1="137.031" x2="1640.87" y2="137.031" gradientUnits="userSpaceOnUse">
<stop stop-color="#02FBFE"/>
<stop offset="0.5" stop-color="#F28706"/>
<stop offset="1"/>
</linearGradient>
<linearGradient id="paint5_linear_7924_3904" x1="1080.87" y1="137.031" x2="1427.82" y2="137.031" gradientUnits="userSpaceOnUse">
<stop stop-color="#02FBFE"/>
<stop offset="0.5" stop-color="#F28706"/>
<stop offset="1"/>
</linearGradient>
<linearGradient id="paint6_linear_7924_3904" x1="1394.35" y1="190.969" x2="1741.3" y2="190.969" gradientUnits="userSpaceOnUse">
<stop stop-color="#02FBFE"/>
<stop offset="0.5" stop-color="#F28706"/>
<stop offset="1"/>
</linearGradient>
<linearGradient id="paint7_linear_7924_3904" x1="1181.31" y1="190.969" x2="1528.26" y2="190.969" gradientUnits="userSpaceOnUse">
<stop stop-color="#02FBFE"/>
<stop offset="0.5" stop-color="#F28706"/>
<stop offset="1"/>
</linearGradient>
<linearGradient id="paint8_linear_7924_3904" x1="1281.74" y1="246.364" x2="1628.7" y2="246.364" gradientUnits="userSpaceOnUse">
<stop stop-color="#02FBFE"/>
<stop offset="0.5" stop-color="#F28706"/>
<stop offset="1"/>
</linearGradient>
<linearGradient id="paint9_linear_7924_3904" x1="1382.17" y1="300.302" x2="1729.13" y2="300.302" gradientUnits="userSpaceOnUse">
<stop stop-color="#02FBFE"/>
<stop offset="0.5" stop-color="#F28706"/>
<stop offset="1"/>
</linearGradient>
<linearGradient id="paint10_linear_7924_3904" x1="346.957" y1="27.6978" x2="0" y2="27.6978" gradientUnits="userSpaceOnUse">
<stop stop-color="#02FBFE"/>
<stop offset="0.5" stop-color="#F28706"/>
<stop offset="1"/>
</linearGradient>
<linearGradient id="paint11_linear_7924_3904" x1="560" y1="27.6978" x2="213.043" y2="27.6978" gradientUnits="userSpaceOnUse">
<stop stop-color="#02FBFE"/>
<stop offset="0.5" stop-color="#F28706"/>
<stop offset="1"/>
</linearGradient>
<linearGradient id="paint12_linear_7924_3904" x1="246.523" y1="81.6358" x2="-100.434" y2="81.6358" gradientUnits="userSpaceOnUse">
<stop stop-color="#02FBFE"/>
<stop offset="0.5" stop-color="#F28706"/>
<stop offset="1"/>
</linearGradient>
<linearGradient id="paint13_linear_7924_3904" x1="459.566" y1="81.6358" x2="112.609" y2="81.6358" gradientUnits="userSpaceOnUse">
<stop stop-color="#02FBFE"/>
<stop offset="0.5" stop-color="#F28706"/>
<stop offset="1"/>
</linearGradient>
<linearGradient id="paint14_linear_7924_3904" x1="146.085" y1="137.031" x2="-200.871" y2="137.031" gradientUnits="userSpaceOnUse">
<stop stop-color="#02FBFE"/>
<stop offset="0.5" stop-color="#F28706"/>
<stop offset="1"/>
</linearGradient>
<linearGradient id="paint15_linear_7924_3904" x1="359.132" y1="137.031" x2="12.1758" y2="137.031" gradientUnits="userSpaceOnUse">
<stop stop-color="#02FBFE"/>
<stop offset="0.5" stop-color="#F28706"/>
<stop offset="1"/>
</linearGradient>
<linearGradient id="paint16_linear_7924_3904" x1="45.6519" y1="190.969" x2="-301.305" y2="190.969" gradientUnits="userSpaceOnUse">
<stop stop-color="#02FBFE"/>
<stop offset="0.5" stop-color="#F28706"/>
<stop offset="1"/>
</linearGradient>
<linearGradient id="paint17_linear_7924_3904" x1="258.695" y1="190.969" x2="-88.2617" y2="190.969" gradientUnits="userSpaceOnUse">
<stop stop-color="#02FBFE"/>
<stop offset="0.5" stop-color="#F28706"/>
<stop offset="1"/>
</linearGradient>
<linearGradient id="paint18_linear_7924_3904" x1="158.261" y1="246.364" x2="-188.695" y2="246.364" gradientUnits="userSpaceOnUse">
<stop stop-color="#02FBFE"/>
<stop offset="0.5" stop-color="#F28706"/>
<stop offset="1"/>
</linearGradient>
<linearGradient id="paint19_linear_7924_3904" x1="57.8276" y1="300.302" x2="-289.129" y2="300.302" gradientUnits="userSpaceOnUse">
<stop stop-color="#02FBFE"/>
<stop offset="0.5" stop-color="#F28706"/>
<stop offset="1"/>
</linearGradient>
<linearGradient id="paint20_linear_7924_3904" x1="855" y1="974" x2="586" y2="974" gradientUnits="userSpaceOnUse">
<stop stop-color="#02FBFE"/>
<stop offset="0.5" stop-color="#F28706"/>
<stop offset="1"/>
</linearGradient>
<linearGradient id="paint21_linear_7924_3904" x1="1440" y1="797.5" x2="1197" y2="797.5" gradientUnits="userSpaceOnUse">
<stop stop-color="#02FBFE"/>
<stop offset="0.5" stop-color="#F28706"/>
<stop offset="1"/>
</linearGradient>
<linearGradient id="paint22_linear_7924_3904" x1="77.5" y1="828" x2="77.5" y2="728" gradientUnits="userSpaceOnUse">
<stop stop-color="#02FBFE"/>
<stop offset="0.5" stop-color="#F28706"/>
<stop offset="1"/>
</linearGradient>
<clipPath id="clip0_7924_3904">
<rect width="1440" height="1024" fill="white"/>
</clipPath>
<clipPath id="clip1_7924_3904">
<rect width="560" height="328" fill="white" transform="matrix(-1 0 0 1 1440 0)"/>
</clipPath>
<clipPath id="clip2_7924_3904">
<rect width="560" height="328" fill="white"/>
</clipPath>
</defs>
</svg>
