<svg width="1440" height="1024" viewBox="0 0 1440 1024" fill="none" xmlns="http://www.w3.org/2000/svg">
<g clip-path="url(#clip0_7937_4729)">
<rect width="1440" height="1024" fill="#131313"/>
<g opacity="0.8">
<g filter="url(#filter0_f_7937_4729)">
<ellipse cx="467.623" cy="511.966" rx="212.623" ry="454.966" fill="#02FBFE"/>
</g>
<g filter="url(#filter1_f_7937_4729)">
<ellipse cx="973.377" cy="511.966" rx="212.623" ry="454.966" fill="#FFA227"/>
</g>
</g>
<g opacity="0.5" filter="url(#filter2_f_7937_4729)">
<path d="M490.41 545.02V320H741.394V545.02H490.41Z" fill="url(#paint0_linear_7937_4729)"/>
</g>
<g opacity="0.5" filter="url(#filter3_f_7937_4729)">
<path d="M0.410156 225.02L0.410156 -0.000244141L251.394 -0.000244141V225.02L0.410156 225.02Z" fill="url(#paint1_linear_7937_4729)"/>
</g>
<g opacity="0.5" filter="url(#filter4_f_7937_4729)">
<path d="M105.41 750.02H250.41L250.41 975.02H105.41L105.41 750.02Z" fill="url(#paint2_linear_7937_4729)"/>
</g>
<g opacity="0.5">
<mask id="mask0_7937_4729" style="mask-type:luminance" maskUnits="userSpaceOnUse" x="17" y="6" width="1413" height="590">
<path d="M1429.79 6.51855H17.1875V595.693H1429.79V6.51855Z" fill="white"/>
</mask>
<g mask="url(#mask0_7937_4729)">
<path d="M240.709 187.082C242.742 188.255 245.138 189.109 247.418 190.062C248.541 190.531 249.728 190.954 251.076 191.144C251.172 191.158 251.251 191.217 251.381 191.275C251.244 191.507 251.106 191.738 250.957 191.991C250.713 191.99 250.5 191.992 250.287 191.988C249.098 191.958 247.951 192.109 246.834 192.338C243.783 192.96 241.156 194.021 238.867 195.415C237.016 196.542 235.519 197.84 234.251 199.244C232.624 201.046 231.351 202.947 230.268 204.899C229.247 206.738 228.296 208.594 227.299 210.438C225.96 212.916 224.416 215.341 222.462 217.659C219.988 220.594 217.002 223.301 213.264 225.667C210.877 227.177 208.182 228.429 205.146 229.385C203.176 230.005 201.121 230.484 198.949 230.753C195.889 231.131 192.898 230.899 189.952 230.329C187.311 229.817 184.825 229.103 182.544 228.116C181.339 227.594 180.115 227.092 178.909 226.57C177.434 225.93 175.933 225.318 174.336 224.799C172.639 224.247 171.117 223.53 169.646 222.77C167.866 221.85 166.075 220.942 164.295 220.025C163.696 219.717 163.047 219.467 162.329 219.283C159.686 218.604 157.055 217.908 154.403 217.246C153.35 216.983 152.258 216.78 151.173 216.572C150.156 216.376 149.118 216.229 148.054 216.186C147.48 216.164 147.03 216.014 146.559 215.815C143.984 214.721 141.392 213.642 138.784 212.58C138.053 212.282 137.243 212.057 136.422 211.783C136.52 211.679 136.601 211.584 136.695 211.493C136.795 211.397 136.904 211.305 137.025 211.199C137.575 211.149 138.115 211.218 138.652 211.267C139.887 211.379 141.087 211.588 142.272 211.833C146.103 212.625 149.789 213.646 153.477 214.66C156.242 215.421 158.816 216.375 161.214 217.52C161.768 217.784 162.321 218.048 162.898 218.292C163.382 218.497 163.872 218.71 164.403 218.854C167.522 219.7 170.3 220.884 172.959 222.189C174.747 223.065 176.527 223.947 178.295 224.836C178.79 225.085 179.322 225.263 179.928 225.378C182.443 225.858 184.997 226.103 187.626 225.893C189.564 225.739 191.419 225.396 193.214 224.912C197.563 223.739 201.226 221.987 204.355 219.78C207.66 217.449 210.312 214.851 212.467 212.047C214.377 209.562 215.808 206.963 217.157 204.344C218.324 202.074 219.537 199.817 221.072 197.631C222.447 195.672 224.078 193.808 226.19 192.117C228.13 190.564 230.422 189.267 233.187 188.311C235.027 187.675 236.956 187.189 239.069 187.044C239.577 187.007 240.088 186.977 240.709 187.082Z" fill="url(#paint3_linear_7937_4729)"/>
<path d="M922.662 313.859C922.662 312.063 920.334 310.606 917.464 310.606C914.594 310.606 912.266 312.063 912.266 313.859C912.266 315.656 914.594 317.111 917.464 317.111C920.336 317.111 922.662 315.655 922.662 313.859Z" fill="#5BD3DD"/>
<path d="M678.329 10.7679C669.987 11.9074 661.566 12.6969 653.017 12.8501C649.518 12.9125 646.013 12.9019 642.515 12.9785C641.509 13.0009 640.515 13.2107 639.451 13.3426C638.641 16.0811 637.503 18.6346 638.456 21.1586C639.891 21.9175 641.319 21.7455 642.656 21.7195C650.416 21.5628 658.176 21.4084 665.93 21.1763C669.422 21.0714 672.916 20.8558 676.382 20.5659C679.088 20.3397 681.759 19.9355 684.435 19.5785C685.667 19.4147 686.69 19.0188 687.483 18.0101C687.422 15.6074 687.345 12.975 684.693 10.5924C682.198 10.2789 680.273 10.5028 678.329 10.7679Z" fill="url(#paint4_linear_7937_4729)"/>
<path d="M1439.01 25.7998C1430.67 26.9393 1422.25 27.7288 1413.7 27.8819C1410.2 27.9444 1406.7 27.9338 1403.2 28.0104C1402.19 28.0328 1401.2 28.2425 1400.13 28.3745C1399.32 31.113 1398.19 33.6665 1399.14 36.1905C1400.57 36.9493 1402 36.7785 1403.34 36.7514C1411.1 36.5947 1418.86 36.4403 1426.61 36.2082C1430.11 36.1033 1433.6 35.8877 1437.07 35.5978C1439.77 35.3715 1442.44 34.9674 1445.12 34.6103C1446.35 34.4465 1447.37 34.0506 1448.17 33.0408C1448.11 30.6381 1448.03 28.0057 1445.38 25.6231C1442.88 25.3108 1440.96 25.5335 1439.01 25.7998Z" fill="url(#paint5_linear_7937_4729)"/>
<path d="M117.721 346.822C114.436 351.753 110.649 356.523 105.951 360.996C104.028 362.828 102.009 364.619 100.105 366.457C99.5589 366.985 99.2651 367.615 98.8281 368.237C101.953 370.222 104.648 372.267 108.5 373.224C110.315 372.922 110.909 372.092 111.639 371.391C115.879 367.322 120.121 363.253 124.257 359.143C126.12 357.292 127.837 355.377 129.442 353.434C130.695 351.916 131.695 350.315 132.761 348.738C133.25 348.012 133.318 347.262 132.45 346.276C129.269 344.932 125.773 343.463 121.132 343.459C119.296 344.557 118.488 345.672 117.721 346.822Z" fill="url(#paint6_linear_7937_4729)"/>
<path d="M86.5578 216.922C84.5745 217.533 83.5555 218.645 82.3332 219.59C79.1897 222.022 75.2664 223.761 70.7517 225.045C66.4085 226.28 61.8994 227.086 57.1267 227.278C55.91 227.328 54.6745 227.337 53.8081 227.998C53.2223 230.342 53.6819 232.949 55.215 235.665C55.7989 235.753 56.5146 235.958 57.2209 235.944C58.1212 235.927 59.0234 235.759 59.9067 235.613C71.6162 233.677 81.2615 229.659 89.3717 224.116C90.3963 223.416 91.3305 222.642 92.1027 221.827C92.6056 221.296 92.7431 220.629 93.0633 219.983C90.8615 218.801 89.5996 217.132 86.5578 216.922Z" fill="url(#paint7_linear_7937_4729)"/>
<path d="M334.669 377.909C333.325 378.324 332.633 379.077 331.805 379.718C329.673 381.368 327.013 382.547 323.952 383.417C321.007 384.255 317.95 384.8 314.714 384.931C313.889 384.964 313.051 384.971 312.463 385.419C312.066 387.008 312.379 388.775 313.418 390.616C313.814 390.677 314.3 390.816 314.778 390.806C315.388 390.794 316 390.681 316.599 390.582C324.538 389.27 331.08 386.545 336.577 382.788C337.272 382.313 337.905 381.788 338.429 381.236C338.77 380.875 338.862 380.423 339.08 379.985C337.589 379.184 336.732 378.052 334.669 377.909Z" fill="url(#paint8_linear_7937_4729)"/>
<path d="M1191.44 465.724C1190.09 466.139 1189.4 466.892 1188.57 467.533C1186.44 469.183 1183.78 470.362 1180.72 471.232C1177.77 472.07 1174.72 472.615 1171.48 472.746C1170.65 472.779 1169.82 472.786 1169.23 473.234C1168.83 474.823 1169.14 476.59 1170.18 478.431C1170.58 478.492 1171.07 478.631 1171.54 478.621C1172.15 478.609 1172.77 478.496 1173.37 478.397C1181.3 477.085 1187.85 474.36 1193.34 470.603C1194.04 470.128 1194.67 469.603 1195.19 469.051C1195.54 468.69 1195.63 468.238 1195.85 467.8C1194.35 466.999 1193.5 465.867 1191.44 465.724Z" fill="url(#paint9_linear_7937_4729)"/>
<path d="M1415.04 390.661C1414.83 389.966 1414.29 389.417 1413.19 389.24C1410.1 389.559 1407.11 390.003 1404.09 390.142C1400.91 390.289 1397.67 390.297 1394.51 390.086C1391.51 389.888 1388.59 389.327 1385.71 388.938C1383.36 390.169 1382.87 391.748 1382.29 393.215C1383.17 394.694 1385.13 395.041 1387.01 395.416C1394.67 396.941 1402.51 397.5 1410.52 397.076C1411.54 397.022 1412.53 396.756 1413.46 396.601C1415.1 394.637 1415.68 392.71 1415.04 390.661Z" fill="url(#paint10_linear_7937_4729)"/>
<path d="M1443.28 486.85C1443.06 486.154 1442.52 485.605 1441.43 485.429C1438.33 485.748 1435.35 486.19 1432.33 486.33C1429.15 486.477 1425.91 486.486 1422.74 486.275C1419.75 486.077 1416.82 485.516 1413.95 485.127C1411.59 486.357 1411.1 487.936 1410.53 489.403C1411.4 490.882 1413.37 491.23 1415.25 491.604C1422.9 493.129 1430.75 493.689 1438.75 493.265C1439.78 493.21 1440.77 492.944 1441.7 492.79C1443.33 490.827 1443.92 488.9 1443.28 486.85Z" fill="url(#paint11_linear_7937_4729)"/>
<path d="M571.236 157.421C570.57 157.261 569.762 157.334 568.718 157.285C568.49 157.989 568.251 158.609 568.095 159.237C567.863 160.173 567.982 161.185 567.441 162.039C565.366 165.327 562.145 168.052 556.911 169.656C554.716 170.329 552.494 170.966 550.322 171.668C549.546 171.919 548.887 172.309 548.397 172.532C547.953 173.61 548.706 174.179 549.558 174.762C551.82 176.311 554.01 177.902 556.272 179.453C557.082 180.008 558.014 180.493 558.723 180.912C561.224 181.153 562.821 180.376 564.358 179.597C568.168 177.663 571.43 175.394 574.485 173.001C578.356 169.971 580.983 166.548 582.673 162.832C582.959 162.204 583.053 161.541 583.215 160.967C582.822 160.629 582.633 160.282 582.275 160.189C578.614 159.237 574.939 158.306 571.236 157.421Z" fill="url(#paint12_linear_7937_4729)"/>
<path d="M1133.53 183.157C1133.84 180.462 1135.03 177.913 1136.61 175.415C1137.62 173.821 1138.54 172.2 1139.38 170.565C1140.39 168.584 1141.27 166.579 1141.94 164.497C1139.55 163.189 1136.59 162.946 1133.97 162.267C1132.85 161.98 1131.64 161.754 1130.45 161.703C1129.12 161.646 1128.12 162.172 1127.68 162.955C1127.14 163.945 1126.67 164.956 1126.32 165.979C1124.54 171.246 1121.62 176.237 1117.22 180.879C1116.62 181.516 1116.22 182.227 1115.88 182.707C1116.23 183.722 1117.04 184.136 1118.18 184.221C1122.42 184.535 1126.66 184.827 1130.9 185.084C1131.46 185.117 1132.05 184.893 1132.97 184.724C1133.21 184.066 1133.47 183.615 1133.53 183.157Z" fill="url(#paint13_linear_7937_4729)"/>
<path d="M167.743 175.705C163.034 174.184 159.083 172.147 156.207 169.335C154.728 167.89 153.233 166.453 151.455 164.731C150.453 164.765 149.452 164.634 148.718 164.852C143.915 166.273 143.079 167.832 145.571 170.808C148.134 173.868 151.34 176.67 155.065 179.21C157.12 180.612 159.491 181.835 161.761 183.11C162.674 183.623 163.712 184.035 165.516 183.91C168.607 182.437 170.327 180.138 172.046 178.027C171.24 176.519 169.331 176.217 167.743 175.705Z" fill="url(#paint14_linear_7937_4729)"/>
<path d="M410.565 103.876C409.994 103.326 409.146 102.886 408.417 102.4C405.334 100.34 403.102 98.0008 402.266 95.1857C402.074 94.5388 401.697 93.9143 401.388 93.2391C398.09 92.0348 395.228 92.9987 391.8 93.7717C391.525 94.9783 390.988 96.0176 391.112 97.0251C391.559 100.669 392.926 104.18 395.941 107.359C396.936 108.408 397.906 109.523 400.036 110.104C400.648 109.989 401.477 109.96 402.048 109.704C405.127 108.325 408.304 107.016 411.079 105.277C410.905 104.754 410.936 104.233 410.565 103.876Z" fill="url(#paint15_linear_7937_4729)"/>
<path d="M389.161 268.801C384.441 268.938 379.717 269.064 375.007 269.292C371.637 269.454 368.311 269.394 364.99 269.022C361.242 268.602 357.494 268.183 353.748 267.761C352.399 267.609 351.043 267.38 349.331 268.208C348.613 270.292 348.487 272.61 349.781 274.912C350.16 275.584 351.073 275.994 352.211 276.064C353.416 276.137 354.644 276.177 355.848 276.115C360.557 275.872 365.265 275.609 369.964 275.298C373.479 275.066 376.952 275.113 380.427 275.529C383.569 275.903 386.725 276.231 389.878 276.568C391.089 276.698 392.31 276.807 393.647 276C394.295 273.886 394.444 271.548 394.148 268.839C392.178 268.821 390.666 268.758 389.161 268.801Z" fill="url(#paint16_linear_7937_4729)"/>
<path d="M174.08 443.638C173.389 443.311 172.093 443.483 171.392 443.444C170.931 443.658 170.78 443.701 170.693 443.773C170.416 444 170.115 444.223 169.906 444.474C165.879 449.345 160.153 453.214 152.608 456.027C151.448 456.46 150.184 456.865 149.516 457.94C149.632 458.217 149.619 458.765 150.045 459.083C151.606 460.253 153.269 461.375 154.985 462.459C155.944 463.066 157.266 463.118 158.385 462.708C159.952 462.132 161.485 461.486 162.851 460.738C168.041 457.902 172.579 454.672 176.828 451.289C178.223 450.178 179.627 449.04 180.54 447.669C178.952 445.917 176.483 444.774 174.08 443.638Z" fill="url(#paint17_linear_7937_4729)"/>
<path d="M26.1892 579.815C25.498 579.487 24.2021 579.659 23.5015 579.621C23.04 579.835 22.8912 579.877 22.8027 579.949C22.5258 580.177 22.2245 580.399 22.0154 580.65C17.9886 585.522 12.2628 589.39 4.71765 592.204C3.55744 592.637 2.29175 593.042 1.625 594.117C1.74177 594.394 1.72859 594.942 2.15425 595.26C3.71565 596.43 5.37875 597.552 7.09459 598.636C8.05516 599.242 9.37547 599.294 10.4942 598.884C12.0613 598.309 13.5944 597.662 14.96 596.915C20.1508 594.079 24.6881 590.849 28.9353 587.466C30.3309 586.355 31.7341 585.217 32.6476 583.846C31.0617 582.093 28.5925 580.951 26.1892 579.815Z" fill="url(#paint18_linear_7937_4729)"/>
<path d="M1266.87 69.4986C1267.02 68.9636 1266.18 68.3238 1265.91 67.9161C1265.4 67.7582 1265.27 67.6945 1265.12 67.6792C1264.67 67.6297 1264.22 67.5649 1263.76 67.5649C1255 67.5732 1246.87 66.1757 1239.4 63.284C1238.26 62.8397 1237.1 62.3236 1235.26 62.4474C1234.92 62.6406 1234.14 62.8845 1233.88 63.2675C1232.95 64.6744 1232.12 66.1144 1231.37 67.5661C1230.95 68.378 1231.49 69.1368 1232.59 69.5681C1234.12 70.1726 1235.75 70.7264 1237.44 71.14C1243.85 72.7155 1250.53 73.7465 1257.28 74.5466C1259.5 74.8094 1261.76 75.0639 1264.13 74.9402C1265.89 73.2552 1266.37 71.3569 1266.87 69.4986Z" fill="url(#paint19_linear_7937_4729)"/>
<path d="M516.813 55.2602C514.566 52.537 512.327 49.8127 510.891 46.9352C510.709 46.5687 510.502 46.1975 510.187 45.857C509.654 45.2772 508.838 44.8625 507.166 44.9037C504.518 45.7227 501.51 46.5039 499.453 47.8531C500.335 50.1674 504.39 55.6856 509.194 61.1143C509.671 61.6528 510.334 62.1477 510.997 62.7416C514.724 62.7121 517.421 61.7517 520.271 60.6099C520.055 60.0019 519.994 59.3939 519.612 58.8459C518.768 57.6358 517.792 56.4468 516.813 55.2602Z" fill="url(#paint20_linear_7937_4729)"/>
<path d="M851.673 223.396C843.331 224.536 834.91 225.325 826.361 225.479C822.861 225.541 819.356 225.53 815.859 225.607C814.853 225.629 813.858 225.839 812.794 225.971C811.984 228.71 810.847 231.263 811.8 233.787C813.235 234.546 814.663 234.375 816 234.348C823.76 234.191 831.52 234.037 839.274 233.805C842.766 233.7 846.26 233.484 849.725 233.194C852.432 232.968 855.103 232.564 857.779 232.207C859.011 232.043 860.034 231.647 860.826 230.638C860.766 228.236 860.689 225.603 858.035 223.221C855.541 222.907 853.617 223.131 851.673 223.396Z" fill="url(#paint21_linear_7937_4729)"/>
<path d="M387.079 1.19111C378.737 2.33058 370.316 3.12007 361.767 3.27326C358.268 3.33571 354.764 3.32511 351.265 3.4017C350.259 3.42409 349.265 3.63383 348.201 3.76581C347.391 6.50429 346.253 9.05777 347.206 11.5818C348.641 12.3407 350.069 12.1698 351.406 12.1427C359.166 11.986 366.926 11.8316 374.68 11.5995C378.172 11.4946 381.666 11.279 385.132 10.9891C387.838 10.7628 390.509 10.3587 393.185 10.0016C394.417 9.83784 395.44 9.44192 396.233 8.43325C396.172 6.0306 396.095 3.39816 393.443 1.01554C390.948 0.700921 389.023 0.924808 387.079 1.19111Z" fill="url(#paint22_linear_7937_4729)"/>
<path d="M23.8114 429.184C20.3232 434.06 16.3359 438.767 11.454 443.16C9.45564 444.96 7.36122 446.716 5.3817 448.523C4.81289 449.041 4.4927 449.667 4.03125 450.281C7.07117 452.316 9.67977 454.404 13.4919 455.424C15.3189 455.152 15.9479 454.332 16.707 453.643C21.1143 449.645 25.5254 445.647 29.8329 441.606C31.7728 439.787 33.5697 437.9 35.2554 435.983C36.5719 434.486 37.638 432.902 38.7699 431.343C39.2916 430.625 39.3896 429.875 38.5627 428.876C35.4381 427.48 32.0064 425.954 27.3674 425.875C25.4802 426.946 24.6251 428.048 23.8114 429.184Z" fill="url(#paint23_linear_7937_4729)"/>
<path d="M1009.16 96.1177C1003.75 100.247 997.919 104.132 991.361 107.567C988.677 108.972 985.916 110.323 983.247 111.74C982.48 112.147 981.908 112.698 981.203 113.214C983.281 115.678 984.917 118.123 988.166 119.734C990.044 119.773 990.995 119.085 992.018 118.545C997.953 115.413 1003.89 112.284 1009.75 109.094C1012.38 107.657 1014.91 106.134 1017.34 104.562C1019.24 103.334 1020.94 101.981 1022.68 100.664C1023.49 100.057 1023.9 99.3511 1023.52 98.2506C1021.1 96.3888 1018.43 94.3526 1013.98 93.5112C1011.72 94.2336 1010.43 95.1562 1009.16 96.1177Z" fill="url(#paint24_linear_7937_4729)"/>
<path d="M172.877 567.279C169.867 569.574 166.629 571.731 162.987 573.64C161.495 574.421 159.962 575.172 158.479 575.959C158.054 576.185 157.736 576.492 157.344 576.778C158.498 578.146 159.408 579.505 161.212 580.4C162.256 580.421 162.783 580.04 163.352 579.74C166.648 578 169.946 576.262 173.201 574.49C174.666 573.692 176.069 572.846 177.422 571.973C178.476 571.29 179.42 570.539 180.39 569.807C180.836 569.47 181.064 569.078 180.855 568.466C179.507 567.431 178.024 566.3 175.555 565.833C174.293 566.233 173.577 566.746 172.877 567.279Z" fill="url(#paint25_linear_7937_4729)"/>
<path d="M1148.24 53.6293C1147.28 53.2511 1146.27 53.1238 1145.32 53.4985C1143.57 55.127 1142.04 56.7909 1140.13 58.265C1138.13 59.8145 1135.92 61.2969 1133.5 62.5966C1131.22 63.8232 1128.56 64.7742 1126.14 65.8158C1125.96 67.7318 1127.46 69.0386 1128.78 70.3042C1131.1 70.9204 1132.85 70.2617 1134.57 69.662C1141.59 67.2169 1147.62 64.0271 1152.61 60.0867C1153.25 59.5847 1153.62 58.9496 1154.07 58.4205C1152.91 56.3289 1151.06 54.7429 1148.24 53.6293Z" fill="url(#paint26_linear_7937_4729)"/>
<path d="M794.04 117.045C793.599 116.698 793.217 116.28 792.667 115.988C791.74 115.497 790.699 115.091 789.719 114.639C783.382 111.707 778.82 108.037 777.289 103.073C776.944 101.954 776.39 100.858 775.874 99.7623C775.064 98.0443 773.35 97.4787 770.649 98.1692C768.4 98.7442 766.227 99.4465 764.078 100.159C761.328 101.07 760.878 101.682 761.319 103.616C761.426 104.086 761.573 104.557 761.793 105.011C763.21 107.933 764.973 110.772 767.359 113.438C770.359 116.791 774.354 119.663 778.773 122.308C779.75 122.893 780.769 123.514 782.698 123.366C786.092 121.628 789.736 119.773 793.349 117.894C793.662 117.729 793.76 117.401 794.04 117.045Z" fill="url(#paint27_linear_7937_4729)"/>
<path d="M1113.06 328.944C1113.37 326.249 1114.56 323.7 1116.14 321.202C1117.15 319.608 1118.07 317.986 1118.9 316.352C1119.92 314.371 1120.8 312.366 1121.47 310.283C1119.08 308.975 1116.12 308.733 1113.5 308.054C1112.39 307.766 1111.17 307.54 1109.98 307.49C1108.65 307.433 1107.64 307.958 1107.21 308.742C1106.67 309.732 1106.2 310.743 1105.85 311.766C1104.06 317.033 1101.15 322.023 1096.75 326.666C1096.15 327.302 1095.75 328.014 1095.41 328.494C1095.76 329.508 1096.57 329.923 1097.72 330.008C1101.95 330.322 1106.19 330.613 1110.43 330.87C1110.98 330.903 1111.58 330.679 1112.5 330.511C1112.74 329.852 1113 329.402 1113.06 328.944Z" fill="url(#paint28_linear_7937_4729)"/>
<path d="M1253.22 260.164C1253.54 257.47 1254.72 254.921 1256.31 252.423C1257.32 250.828 1258.24 249.207 1259.07 247.573C1260.08 245.592 1260.97 243.586 1261.64 241.504C1259.25 240.196 1256.29 239.953 1253.66 239.275C1252.55 238.987 1251.34 238.761 1250.15 238.71C1248.82 238.654 1247.81 239.179 1247.38 239.963C1246.84 240.953 1246.37 241.964 1246.02 242.986C1244.23 248.254 1241.32 253.244 1236.92 257.887C1236.32 258.523 1235.92 259.235 1235.57 259.714C1235.93 260.729 1236.74 261.144 1237.88 261.228C1242.12 261.543 1246.36 261.834 1250.6 262.091C1251.15 262.124 1251.75 261.9 1252.67 261.732C1252.91 261.073 1253.17 260.623 1253.22 260.164Z" fill="url(#paint29_linear_7937_4729)"/>
<path d="M1406.92 232.054C1402.18 233.535 1397.22 234.329 1391.89 234.123C1389.16 234.017 1386.42 233.925 1383.15 233.807C1382.6 234.334 1381.84 234.761 1381.69 235.261C1380.69 238.525 1382.21 239.867 1387.52 240.365C1392.98 240.875 1398.49 240.91 1403.97 240.526C1406.99 240.314 1409.96 239.838 1412.95 239.445C1414.15 239.286 1415.29 239.005 1416.2 238.021C1416.12 235.59 1414.16 233.365 1412.46 231.252C1410.04 230.767 1408.52 231.554 1406.92 232.054Z" fill="url(#paint30_linear_7937_4729)"/>
<path d="M217.721 48.8426C217.15 48.2923 216.303 47.8528 215.574 47.3662C212.49 45.3064 210.259 42.9674 209.422 40.1523C209.23 39.5054 208.855 38.8809 208.545 38.2069C205.247 37.0026 202.384 37.9665 198.956 38.7395C198.681 39.9461 198.144 40.9854 198.268 41.9929C198.715 45.6364 200.082 49.1478 203.098 52.3258C204.092 53.3746 205.06 54.4893 207.192 55.0702C207.804 54.9559 208.633 54.9265 209.202 54.6719C212.281 53.2933 215.461 51.9841 218.233 50.2449C218.062 49.7193 218.092 49.1997 217.721 48.8426Z" fill="url(#paint31_linear_7937_4729)"/>
<path d="M658.226 279.891C657.78 279.461 657.121 279.118 656.552 278.739C654.145 277.132 652.404 275.306 651.751 273.109C651.6 272.604 651.308 272.117 651.065 271.59C648.49 270.65 646.257 271.402 643.582 272.006C643.367 272.947 642.949 273.758 643.045 274.545C643.394 277.388 644.46 280.128 646.814 282.61C647.59 283.428 648.347 284.297 650.01 284.751C650.487 284.661 651.135 284.639 651.579 284.44C653.983 283.364 656.463 282.342 658.627 280.985C658.492 280.576 658.516 280.169 658.226 279.891Z" fill="url(#paint32_linear_7937_4729)"/>
<path d="M243.867 149.264C243.867 152.44 239.752 155.014 234.676 155.014C229.6 155.014 225.484 152.44 225.484 149.264C225.484 146.088 229.6 143.514 234.676 143.514C239.752 143.514 243.867 146.088 243.867 149.264Z" fill="#5BD3DD"/>
<path d="M1265.33 344.949C1265.33 348.125 1261.22 350.699 1256.14 350.699C1251.06 350.699 1246.95 348.125 1246.95 344.949C1246.95 341.773 1251.06 339.199 1256.14 339.199C1261.22 339.199 1265.33 341.773 1265.33 344.949Z" fill="#5BD3DD"/>
<path d="M1415.07 594.575C1415.07 597.751 1410.95 600.325 1405.87 600.325C1400.8 600.325 1396.68 597.751 1396.68 594.575C1396.68 591.399 1400.8 588.825 1405.87 588.825C1410.95 588.825 1415.07 591.399 1415.07 594.575Z" fill="#5BD3DD"/>
<path d="M583.383 246.008C583.383 249.184 579.267 251.758 574.191 251.758C569.115 251.758 565 249.184 565 246.008C565 242.833 569.115 240.258 574.191 240.258C579.267 240.258 583.383 242.834 583.383 246.008Z" fill="#5BD3DD"/>
<path d="M167.32 277.887C167.32 281.063 163.205 283.637 158.129 283.637C153.053 283.637 148.938 281.063 148.938 277.887C148.938 274.711 153.053 272.137 158.129 272.137C163.205 272.137 167.32 274.711 167.32 277.887Z" fill="#5BD3DD"/>
<path d="M1332.55 466.769C1334.49 465.072 1335.78 463.18 1336.67 461.178C1338.05 458.062 1338.56 454.883 1338.41 451.655C1338.28 448.802 1337.64 445.997 1336.45 443.24C1335.35 440.682 1333.7 438.264 1331.65 435.949C1331.34 435.594 1330.92 435.333 1330.3 435.15C1328.2 437.514 1325.29 439.494 1322.79 441.673C1322.83 441.736 1322.86 441.799 1322.91 441.858C1323.67 442.773 1324.49 443.668 1325.18 444.604C1327.23 447.391 1328.56 450.319 1329.27 453.351C1330.05 456.678 1330.15 460.013 1329.41 463.351C1329.02 465.127 1328.38 466.865 1327.47 468.566C1327.22 469.019 1326.81 469.361 1326.21 469.646C1328.18 468.888 1330.08 468.108 1331.8 467.373C1332.06 467.173 1332.31 466.975 1332.55 466.769Z" fill="url(#paint33_linear_7937_4729)"/>
<path d="M1282.01 453.8C1282.5 453.686 1282.98 453.658 1283.46 453.652C1285.12 453.631 1286.62 453.963 1288.02 454.505C1289.77 455.184 1291.34 456.008 1292.72 456.963C1296.5 459.573 1298.85 462.626 1299.87 466.086C1300.22 467.258 1300.45 468.438 1300.56 469.627C1300.57 469.759 1300.55 469.892 1300.54 470.13C1304.18 471.473 1307.82 471.97 1309.7 472.152C1309.45 472.124 1309.2 472.081 1308.98 472.049C1308.76 471.791 1308.9 471.561 1308.92 471.338C1308.99 470.537 1309.09 469.737 1309.15 468.936C1309.33 466.277 1309.28 463.623 1308.67 460.981C1308.13 458.598 1307.02 456.335 1305.13 454.226C1302.98 451.804 1300.12 449.778 1296.44 448.218C1295.16 447.675 1293.81 447.218 1292.32 446.94C1291.33 446.756 1290.36 446.691 1289.41 446.74C1289.09 446.769 1288.8 446.804 1288.51 446.839C1288.39 446.855 1288.26 446.861 1288.13 446.881C1288.04 446.894 1287.96 446.91 1287.86 446.923C1287.42 447.005 1286.98 447.105 1286.55 447.236C1285.34 447.6 1284.32 448.09 1283.45 448.683C1282.46 449.789 1282.29 451.414 1282.01 453.8Z" fill="url(#paint34_linear_7937_4729)"/>
<path d="M1333.94 531.425C1334.73 530.765 1335.52 530.103 1336.34 529.457C1336.98 528.955 1337.66 528.478 1338.32 527.987C1338.45 527.89 1338.57 527.782 1338.71 527.659C1338.37 527.5 1338.09 527.364 1337.88 527.269C1336.86 527.35 1335.96 527.447 1335.05 527.49C1331.72 527.652 1328.39 527.573 1325.07 527.385C1323.46 527.295 1321.86 527.163 1320.33 526.844C1319.25 526.622 1318.17 526.392 1317.12 526.129C1313.72 525.281 1310.98 523.889 1308.97 521.99C1306.89 520.031 1305.33 517.913 1304.36 515.631C1303.79 514.277 1303.44 512.898 1303.12 511.513C1302.61 509.263 1302.32 507.006 1302.41 504.732C1302.62 499.454 1303.43 494.215 1304.85 489.011C1305.69 485.939 1306.5 482.865 1307.33 479.792C1307.37 479.636 1307.43 479.482 1307.5 479.273C1307.78 479.25 1307.96 479.229 1308.14 479.221C1310.11 479.138 1312.02 478.902 1313.87 478.51C1312.87 478.709 1305.81 480.023 1300.16 478.701C1300.14 478.88 1300.15 479.039 1300.12 479.196C1299.9 480.38 1299.69 481.563 1299.46 482.746C1298.77 486.365 1297.72 489.948 1296.72 493.537C1295.52 497.875 1294.58 502.23 1294.16 506.628C1293.82 510.156 1293.66 513.676 1294.49 517.189C1294.8 518.526 1295.12 519.864 1295.6 521.182C1296.39 523.348 1297.86 525.343 1299.58 527.269C1301.62 529.536 1304.57 531.223 1308.24 532.39C1311.66 533.477 1315.27 534.214 1319.15 534.339C1319.88 534.362 1320.61 534.414 1321.34 534.437C1324.05 534.52 1326.75 534.55 1329.46 534.373C1330.18 534.326 1330.91 534.28 1331.54 534.069C1332.1 533.144 1332.78 532.391 1333.94 531.425Z" fill="#5BD3DD"/>
<path d="M1313.86 478.508C1314.4 478.394 1314.94 478.271 1315.46 478.13C1318.05 477.436 1320.36 476.49 1322.4 475.282C1324.39 474.104 1325.97 472.733 1327.22 471.214C1327.49 470.889 1327.75 470.553 1328.1 470.262C1328.86 469.62 1329.68 469.004 1330.48 468.378C1330.91 468.041 1331.36 467.707 1331.79 467.37C1330.07 468.106 1328.17 468.886 1326.2 469.643C1326.14 469.672 1326.11 469.709 1326.04 469.737C1324.97 470.193 1323.85 470.584 1322.7 470.929C1322.62 470.957 1322.54 470.987 1322.45 471.014C1322.54 470.986 1322.61 470.956 1322.7 470.929C1321.12 471.402 1319.49 471.776 1317.74 472.01C1315.13 472.36 1312.52 472.413 1309.88 472.171C1309.85 472.168 1309.81 472.168 1309.78 472.164C1309.75 472.16 1309.72 472.155 1309.69 472.152C1307.82 471.971 1304.17 471.473 1300.54 470.13C1300.15 470.015 1299.92 469.957 1299.7 469.877C1293.46 467.572 1288.46 464.489 1284.87 460.537C1283.57 459.097 1282.55 457.577 1282.13 455.928C1282.02 455.494 1281.96 455.054 1281.9 454.617C1281.9 454.631 1281.9 454.643 1281.9 454.656C1281.9 454.643 1281.9 454.63 1281.9 454.617C1281.89 454.509 1281.86 454.4 1281.85 454.292C1281.83 454.139 1281.89 453.982 1281.92 453.816C1281.95 453.809 1281.97 453.809 1282 453.802C1282.29 451.417 1282.45 449.792 1283.45 448.687C1282.95 449.026 1282.48 449.389 1282.09 449.806C1281.46 450.476 1280.78 451.13 1280.03 451.754C1278.65 452.911 1277.22 454.043 1275.8 455.179C1275 455.818 1274.38 456.511 1273.98 457.284C1273.17 458.847 1273.12 460.437 1273.6 462.038C1274.26 464.236 1275.75 466.216 1277.7 468.07C1279.86 470.134 1282.49 471.942 1285.48 473.55C1289.64 475.789 1294.28 477.498 1299.52 478.544C1299.73 478.585 1299.92 478.644 1300.14 478.7C1305.8 480.021 1312.86 478.707 1313.86 478.508Z" fill="url(#paint35_linear_7937_4729)"/>
<path d="M102.399 61.8779C101.7 60.0173 101.659 58.1343 102.023 56.2454C102.588 53.3054 103.927 50.501 105.852 47.8014C107.554 45.414 109.656 43.1787 112.197 41.1036C114.555 39.177 117.297 37.4896 120.322 35.9743C120.786 35.7421 121.285 35.6125 121.908 35.5913C122.37 38.0505 123.733 40.3636 124.639 42.7545C124.571 42.7981 124.507 42.8452 124.432 42.8841C123.279 43.4933 122.085 44.0731 120.982 44.7141C117.693 46.6266 114.941 48.8171 112.649 51.2304C110.137 53.8781 108.195 56.6814 106.961 59.6685C106.306 61.2569 105.874 62.8677 105.703 64.5068C105.658 64.9452 105.816 65.3234 106.164 65.6946C104.916 64.6235 103.742 63.5476 102.697 62.5519C102.591 62.3281 102.484 62.1053 102.399 61.8779Z" fill="url(#paint36_linear_7937_4729)"/>
<path d="M152.403 61.9116C152.055 61.7078 151.663 61.5794 151.26 61.4698C149.862 61.0892 148.408 61.0444 146.922 61.1976C145.058 61.3908 143.274 61.7479 141.571 62.2545C136.915 63.6403 133.226 65.7142 130.431 68.4208C129.483 69.3376 128.636 70.2874 127.88 71.2713C127.796 71.3809 127.737 71.4975 127.611 71.7002C123.784 72.0455 120.422 71.6731 118.734 71.4186C118.962 71.4492 119.196 71.4669 119.394 71.4869C119.725 71.3161 119.738 71.0922 119.846 70.8989C120.234 70.206 120.588 69.5049 120.987 68.8156C122.317 66.5249 123.837 64.2884 125.822 62.1827C127.611 60.2843 129.813 58.6087 132.578 57.2324C135.755 55.6523 139.302 54.5599 143.285 54.0403C144.672 53.8588 146.067 53.7657 147.486 53.8553C148.423 53.9154 149.28 54.0709 150.062 54.3195C150.316 54.4138 150.541 54.5069 150.767 54.5988C150.864 54.6401 150.968 54.6742 151.064 54.7178C151.138 54.7496 151.198 54.7815 151.269 54.8121C151.597 54.9771 151.914 55.1573 152.207 55.3624C153.03 55.9351 153.62 56.5714 154.029 57.2631C154.255 58.4167 153.49 59.8295 152.403 61.9116Z" fill="url(#paint37_linear_7937_4729)"/>
<path d="M65.2212 116.332C64.918 115.601 64.6204 114.868 64.287 114.142C64.0271 113.579 63.7144 113.025 63.4282 112.465C63.3717 112.354 63.3359 112.239 63.2812 112.101C63.6579 112.04 63.9744 111.988 64.2004 111.952C65.0197 112.243 65.7316 112.522 66.4775 112.758C69.2085 113.62 72.0695 114.279 74.987 114.845C76.3996 115.118 77.8254 115.355 79.3058 115.421C80.3417 115.468 81.3814 115.507 82.421 115.514C85.7736 115.536 88.8663 114.954 91.6274 113.785C94.4752 112.579 96.9821 111.126 99.0709 109.404C100.31 108.383 101.374 107.29 102.414 106.187C104.102 104.395 105.601 102.545 106.791 100.598C109.554 96.0841 111.782 91.4697 113.478 86.7527C114.478 83.9683 115.504 81.1886 116.517 78.4065C116.568 78.2651 116.604 78.1225 116.661 77.9304C116.436 77.8491 116.297 77.7926 116.15 77.7466C114.527 77.2458 113.041 76.6307 111.688 75.8931C112.425 76.2796 117.676 78.932 123.2 79.0451C123.111 79.1995 123.019 79.3338 122.955 79.4717C122.477 80.5204 121.998 81.5704 121.531 82.6214C120.104 85.8372 119 89.1012 117.843 92.357C116.446 96.2915 114.815 100.185 112.726 104.001C111.052 107.064 109.219 110.078 106.565 112.873C105.554 113.938 104.539 115 103.399 116.013C101.527 117.676 99.1745 119.045 96.6375 120.299C93.6503 121.776 90.2129 122.56 86.4554 122.749C82.9541 122.925 79.4828 122.761 76.1303 122.022C75.4974 121.883 74.8514 121.767 74.2204 121.627C71.8812 121.107 69.572 120.543 67.3816 119.804C66.7958 119.606 66.2044 119.41 65.7881 119.094C65.8239 118.188 65.6657 117.403 65.2212 116.332Z" fill="#5BD3DD"/>
<path d="M111.697 75.8922C111.305 75.6789 110.921 75.4586 110.554 75.2229C108.75 74.0705 107.316 72.766 106.262 71.2978C105.233 69.8673 104.662 68.3625 104.446 66.8024C104.399 66.4678 104.367 66.1284 104.235 65.8055C103.943 65.095 103.593 64.3939 103.263 63.6892C103.086 63.3098 102.898 62.9315 102.719 62.5521C103.764 63.549 104.937 64.6236 106.186 65.6948C106.222 65.7325 106.23 65.7714 106.269 65.8091C106.926 66.4301 107.655 67.0051 108.437 67.5483C109.505 68.2907 110.682 68.9647 112.029 69.5433C114.046 70.4093 116.231 71.0244 118.596 71.3933C118.628 71.398 118.657 71.405 118.689 71.4098C118.717 71.4145 118.741 71.4145 118.768 71.418C120.455 71.6725 123.817 72.0449 127.645 71.6996C128.034 71.6867 128.268 71.689 128.496 71.6678C135.067 71.0763 141.017 69.5562 146.255 66.9909C148.163 66.0553 149.869 64.9889 151.145 63.6845C151.48 63.3416 151.77 62.9822 152.066 62.624C152.139 62.5356 152.222 62.4496 152.295 62.36C152.399 62.2351 152.431 62.0878 152.501 61.9405C152.48 61.9288 152.457 61.9217 152.437 61.9099C153.523 59.8278 154.288 58.4161 154.062 57.2637C154.296 57.6596 154.486 58.0685 154.586 58.5068C154.746 59.2115 154.964 59.915 155.245 60.6055C155.768 61.8852 156.349 63.1578 156.923 64.4292C157.245 65.1445 157.385 65.868 157.292 66.608C157.106 68.108 156.266 69.4655 154.966 70.7169C153.184 72.4337 150.817 73.7853 148.135 74.9318C145.151 76.2068 141.917 77.166 138.493 77.8765C133.726 78.8663 128.842 79.3023 123.819 79.0455C123.623 79.0349 123.426 79.0431 123.207 79.0431C117.683 78.9312 112.434 76.2787 111.697 75.8922Z" fill="url(#paint38_linear_7937_4729)"/>
<path d="M1009.26 202.776C1009.12 201.646 1009.21 200.535 1009.5 199.422C1009.92 197.854 1009.99 196.276 1009.78 194.692C1009.53 192.834 1008.93 191.019 1008.11 189.231C1006.82 186.398 1004.94 183.714 1002.84 181.086C1000.86 178.618 998.56 176.284 995.725 174.164C995.302 173.847 994.889 173.526 994.437 173.226C993.866 172.848 993.077 172.756 992.239 172.942C992.538 175.583 991.793 178.193 991.574 180.916C992.132 180.963 992.488 181.193 992.821 181.437C994.637 182.76 996.336 184.139 997.805 185.623C1000.61 188.456 1002.88 191.455 1004.77 194.57C1005.89 196.434 1006.72 198.351 1007.3 200.312C1008.06 202.083 1008.73 203.564 1009.32 204.801C1009.36 204.13 1009.34 203.456 1009.26 202.776Z" fill="#5BD3DD"/>
<path d="M915.961 233.504C916.617 232.064 917.534 230.696 918.751 229.407C921.013 227.009 923.928 224.966 927.407 223.245C933.219 220.371 939.819 218.704 947.21 218.274C950.83 218.064 954.454 218.058 958.081 218.17C962.219 218.299 966.333 218.583 970.452 218.842C973.405 219.028 976.362 219.187 979.329 219.254C982.191 219.318 985.043 219.252 987.883 219.013C990.69 218.776 993.432 218.381 996.048 217.685C999.201 216.847 1001.93 215.643 1004.14 213.996C1005.73 212.809 1006.91 211.469 1007.76 210.014C1008.76 208.314 1009.25 206.573 1009.34 204.801C1008.75 203.563 1008.07 202.082 1007.31 200.311C1007.33 200.384 1007.37 200.455 1007.39 200.529C1007.5 200.92 1007.51 201.294 1007.31 201.678C1005.51 204.966 1002.26 207.482 997.334 209.13C994.788 209.982 992.063 210.496 989.23 210.798C985.998 211.142 982.74 211.212 979.477 211.091C976.479 210.979 973.488 210.803 970.495 210.644C967.063 210.461 963.637 210.234 960.204 210.085C955.776 209.892 951.344 209.891 946.922 210.197C943.852 210.409 940.838 210.788 937.924 211.436C930.464 213.093 924.361 215.896 919.704 219.915C917.948 221.429 916.568 223.061 915.624 224.836C914.895 226.208 914.464 227.611 914.277 229.036C914.49 230.826 915.059 232.78 915.826 234.726C915.737 234.305 915.778 233.907 915.961 233.504Z" fill="url(#paint39_linear_7937_4729)"/>
<path d="M960.126 306.157C959.891 305.316 959.877 304.47 959.988 303.621C960.096 302.799 960.19 301.976 960.299 301.154C960.341 300.835 960.346 300.506 960.476 300.2C960.836 299.358 960.791 298.526 960.491 297.688C960.474 297.644 960.471 297.598 960.461 297.552C959.619 293.966 958.58 290.404 957.254 286.877C956.269 284.258 954.858 281.725 952.954 279.313C951.852 277.917 950.614 276.563 949.405 275.201C947.267 272.797 945.004 270.441 942.438 268.204C940.218 266.268 937.988 264.338 935.761 262.404C931.603 258.792 927.781 255.05 924.56 251.074C921.956 247.86 919.639 244.572 918.006 241.106C917.019 239.014 916.273 236.89 915.819 234.726V234.721C915.055 232.776 914.486 230.822 914.271 229.031C914.198 229.59 914.154 230.151 914.156 230.717C914.164 232.118 914.026 233.511 913.823 234.904C913.74 235.474 913.665 236.045 913.587 236.616C913.384 238.104 913.384 239.592 913.578 241.081C914.083 244.948 915.586 248.672 917.778 252.29C920.343 256.525 923.63 260.537 927.401 264.397C930.115 267.175 933.134 269.824 936.204 272.451C938.82 274.688 941.436 276.926 943.789 279.278C945.866 281.358 947.772 283.499 949.661 285.646C952.402 288.759 954.308 292.069 955.543 295.533C956.798 299.047 957.822 302.587 958.638 306.151C958.704 306.442 958.725 306.742 958.947 307.046C959.137 307.034 959.314 307.027 959.487 307.01C959.736 306.987 959.983 306.957 960.284 306.924C960.231 306.653 960.196 306.404 960.126 306.157Z" fill="url(#paint40_linear_7937_4729)"/>
<path d="M515.985 226.611C517.573 223.305 517.488 219.73 516.07 216.378C514.188 217.334 512.414 218.037 511.067 218.515C511.493 221.906 508.589 225.352 505.2 227.893C491.603 238.093 467.582 240.166 447.958 242.329C447.231 242.409 446.766 242.686 446.5 243.082C453.48 243.533 464.962 244.446 473.995 246.009C492.272 243.117 510.504 238.024 515.985 226.611Z" fill="url(#paint41_linear_7937_4729)"/>
<path d="M506.64 270.136C508.537 265.985 507.056 261.435 503.523 257.773C497.513 251.543 486.037 248.209 473.99 246.006C464.957 244.444 453.476 243.53 446.495 243.079C445.371 244.752 447.891 248.574 450.151 248.901C462.595 250.698 510.833 255.507 499.072 268.392C494.669 273.216 489.374 277.33 488.378 282.031L495.701 281.082C498.999 277.199 505.503 272.626 506.64 270.136Z" fill="#5BD3DD"/>
<path d="M448.175 215.295C447.062 215.082 446.049 214.737 445.881 214.048C445.702 213.313 451.616 211.796 453.078 211.382C457.297 210.188 461.792 209.405 466.349 208.911C475.53 207.918 485.863 207.845 494.943 209.283C498.835 209.899 502.869 210.918 505.958 212.571C507.711 212.109 510 211.378 511.791 210.354C505.08 203.955 493.214 202.102 481.654 201.762C472.604 201.496 448.68 202.822 440.664 208.59C440.579 208.647 440.507 208.704 440.428 208.762C439.257 209.653 438.485 210.651 438.172 211.758C438.436 213.417 442.155 214.407 448.175 215.295Z" fill="url(#paint42_linear_7937_4729)"/>
<path d="M532.298 201.409C534.135 196.486 531.095 189.061 522.74 187.406L521.195 193.663C534.662 194.052 516.835 207.794 512.385 210.068C512.189 210.168 511.983 210.259 511.786 210.355C509.996 211.379 507.708 212.111 505.952 212.573C505.973 212.585 505.998 212.594 506.018 212.606C499.227 214.7 491.435 215.513 483.974 216.081C472.941 216.92 461.582 217.256 450.68 215.648C450.034 215.553 449.07 215.468 448.17 215.296C442.152 214.409 438.43 213.419 438.166 211.76C437.679 213.491 438.342 215.492 440.63 217.815C446.231 223.503 461.139 223.41 470.502 223.36C482.993 223.292 497.206 222.694 508.653 219.284C509.459 219.043 510.26 218.773 511.057 218.487C511.059 218.497 511.057 218.505 511.057 218.513C512.403 218.035 514.179 217.331 516.059 216.375C523.759 212.619 530.206 207.019 532.298 201.409Z" fill="#5BD3DD"/>
</g>
<path d="M245.386 414.432C242.303 412.372 240.071 410.033 239.235 407.218C239.043 406.572 238.666 405.946 238.357 405.271C235.059 404.067 232.196 405.032 228.768 405.804C228.493 407.01 227.957 408.05 228.081 409.057C228.527 412.701 229.895 416.212 232.91 419.391C233.905 420.44 234.873 421.553 237.005 422.136C237.617 422.02 238.446 421.992 239.016 421.737C242.096 420.359 245.275 419.049 248.048 417.31C247.872 416.787 247.903 416.267 247.533 415.909C246.961 415.358 246.115 414.919 245.386 414.432Z" fill="url(#paint43_linear_7937_4729)"/>
<path d="M854.704 30.9823C852.764 31.6257 850.814 32.2608 848.887 32.9207C844.612 34.3854 840.542 36.0575 836.538 37.7944C834.341 38.7476 832.14 39.695 830.113 40.7921C828.075 41.895 826.278 43.1311 824.964 44.6064C824.208 45.456 823.276 46.2125 822.266 46.9395C821.811 47.2683 821.321 47.5782 820.835 47.8893C819.778 48.5656 818.84 49.295 818.012 50.0728C819.669 48.7613 821.895 47.9117 825.67 46.3504C828.015 45.3323 830.328 44.2823 832.69 43.2808C836.634 41.6099 840.694 40.0603 844.934 38.697C846.137 38.3105 847.328 37.9087 848.411 37.5516C850.703 35.189 853.767 33.3249 856.397 31.1968C856.029 31.0707 855.689 30.9529 855.312 30.8232C855.041 30.8951 854.864 30.9293 854.704 30.9823Z" fill="#FFA227"/>
<path d="M816.567 51.6217C814.001 54.927 812.879 58.4173 813.278 62.089C813.617 65.2034 814.828 68.194 816.64 71.0928C818.245 73.6592 820.239 76.1067 822.515 78.4657C826.167 82.2541 830.128 85.9152 834.277 89.4962C837.16 91.9849 839.818 94.562 842.084 97.2934C843.366 98.8417 844.53 100.422 845.402 102.081C846.725 104.6 847.397 107.197 847.678 109.837C848.122 114 847.627 118.124 846.391 122.219C844.973 126.915 842.892 131.497 840.208 135.968C838.483 138.842 836.616 141.684 834.814 144.54C833.414 146.758 832.081 148.99 831.028 151.284C829.922 153.696 829.171 156.142 829.212 158.663C829.223 159.303 829.346 159.941 829.433 160.58C829.497 161.055 829.932 161.354 830.621 161.552C832.894 159.257 835.925 157.376 838.53 155.295C838.155 153.608 838.112 153.029 838.211 151.725C838.353 149.909 838.859 148.13 839.599 146.376C840.536 144.158 841.747 141.995 843.088 139.861C844.884 137.004 846.747 134.162 848.51 131.296C851.092 127.097 853.181 122.805 854.709 118.406C856.121 114.338 856.935 110.234 856.78 106.064C856.707 104.091 856.445 102.131 855.922 100.183C855.087 97.0789 853.354 94.1743 851.021 91.3946C848.768 88.7103 846.186 86.1592 843.344 83.707C839.43 80.3311 835.682 76.8844 832.19 73.3305C829.711 70.8088 827.491 68.2058 825.745 65.4485C824.091 62.8361 822.927 60.1518 822.398 57.3532C821.746 53.9101 822.483 50.593 824.43 47.362C824.688 46.9343 825.072 46.6067 825.666 46.3486C821.891 47.9099 819.663 48.7595 818.007 50.071C817.48 50.5683 816.988 51.0797 816.567 51.6217Z" fill="#FFA227"/>
<path d="M271.148 28.2733C271.148 31.4489 267.033 34.0236 261.957 34.0236C256.881 34.0236 252.766 31.4489 252.766 28.2733C252.766 25.0976 256.881 22.5229 261.957 22.5229C267.035 22.5241 271.148 25.0976 271.148 28.2733Z" fill="#7E91E0"/>
<path d="M709.299 143.314C708.632 143.155 707.824 143.227 706.781 143.178C706.553 143.882 706.314 144.502 706.157 145.13C705.926 146.066 706.044 147.078 705.504 147.932C703.428 151.22 700.207 153.945 694.973 155.549C692.779 156.222 690.556 156.86 688.385 157.561C687.609 157.81 686.95 158.202 686.46 158.426C686.015 159.503 686.769 160.072 687.62 160.655C689.882 162.205 692.073 163.796 694.335 165.346C695.145 165.901 696.077 166.387 696.785 166.805C699.286 167.046 700.884 166.269 702.42 165.49C706.229 163.556 709.493 161.287 712.546 158.895C716.417 155.864 719.044 152.44 720.733 148.725C721.02 148.097 721.114 147.434 721.276 146.86C720.882 146.522 720.694 146.174 720.336 146.081C716.676 145.13 713.002 144.199 709.299 143.314Z" fill="#FFA227"/>
<path d="M1112.26 376.287C1111.8 376.178 1111.25 376.227 1110.53 376.193C1110.37 376.68 1110.21 377.107 1110.1 377.54C1109.94 378.184 1110.02 378.883 1109.65 379.472C1108.22 381.739 1106 383.62 1102.39 384.725C1100.87 385.19 1099.34 385.629 1097.84 386.113C1097.31 386.287 1096.85 386.555 1096.51 386.71C1096.21 387.453 1096.73 387.844 1097.31 388.247C1098.87 389.316 1100.39 390.414 1101.94 391.483C1102.5 391.866 1103.15 392.201 1103.63 392.489C1105.36 392.657 1106.46 392.119 1107.52 391.582C1110.15 390.248 1112.4 388.682 1114.51 387.033C1117.17 384.942 1118.99 382.581 1120.15 380.018C1120.35 379.584 1120.41 379.127 1120.53 378.731C1120.26 378.498 1120.13 378.259 1119.88 378.194C1117.35 377.541 1114.82 376.899 1112.26 376.287Z" fill="#FFA227"/>
<path d="M1223.19 410.246C1223.01 409.942 1222.39 409.742 1221.91 409.462C1219.97 409.973 1218.19 410.5 1216.35 410.918C1209.35 412.508 1202.1 412.926 1194.71 412.746C1193.21 412.709 1191.7 412.665 1190.48 412.632C1188.94 413.35 1188.66 414.164 1188.68 415.057C1188.72 416.393 1188.72 417.729 1188.79 419.065C1188.9 421.099 1189.9 421.922 1193.07 422.057C1195.79 422.174 1198.57 422.114 1201.26 421.876C1208.4 421.243 1215.16 419.715 1221.86 418.104C1222.54 417.941 1223.11 417.598 1223.62 417.384C1224.29 415.324 1224.12 411.779 1223.19 410.246Z" fill="#FFA227"/>
<path d="M285.714 317.531C283.72 316.544 282.117 315.2 279.311 314.651C278.796 315.007 278.164 315.294 277.875 315.682C277.565 316.098 277.561 316.607 277.454 317.078C276.694 320.393 273.839 322.91 269.724 324.915C268.287 325.617 266.69 326.189 265.156 326.814C264.149 327.224 263.13 327.622 262.344 327.934C261.463 329.14 262.154 329.968 263.085 330.767C265.062 332.463 266.983 334.187 269.046 335.841C269.647 336.324 270.647 336.613 271.63 337.068C273.186 336.41 274.709 335.934 275.896 335.233C279.333 333.204 282.693 331.121 285.961 328.986C287.321 328.097 288.517 327.075 289.523 326.017C290.998 324.464 292.308 322.837 291.913 320.787C289.685 319.611 287.745 318.535 285.714 317.531Z" fill="#FFA227"/>
<path d="M455.549 301.792C454.855 301.464 453.562 301.637 452.861 301.598C452.399 301.812 452.249 301.855 452.162 301.926C451.885 302.154 451.584 302.377 451.375 302.628C447.348 307.499 441.622 311.366 434.077 314.18C432.917 314.613 431.651 315.018 430.984 316.092C431.101 316.369 431.088 316.917 431.514 317.235C433.075 318.406 434.738 319.527 436.454 320.611C437.413 321.218 438.735 321.27 439.854 320.86C441.421 320.285 442.954 319.638 444.319 318.891C449.51 316.055 454.047 312.825 458.295 309.442C459.69 308.331 461.093 307.192 462.007 305.823C460.423 304.071 457.952 302.928 455.549 301.792Z" fill="#FFA227"/>
<path d="M18.8931 137.745C15.6083 142.676 11.8206 147.447 7.12328 151.919C5.20025 153.75 3.18118 155.541 1.27699 157.38C0.730786 157.908 0.436965 158.538 0 159.16C3.12467 161.145 5.81992 163.19 9.67161 164.147C11.4873 163.845 12.0806 163.016 12.8113 162.313C17.051 158.245 21.2926 154.176 25.4287 150.066C27.2914 148.214 29.0092 146.3 30.6139 144.357C31.8664 142.839 32.8665 141.237 33.9326 139.661C34.4241 138.935 34.4901 138.184 33.6218 137.199C30.4406 135.855 26.9449 134.385 22.304 134.382C20.4676 135.48 19.6578 136.596 18.8931 137.745Z" fill="#FFA227"/>
<path d="M916.986 114.243C916.416 113.692 915.568 113.253 914.839 112.766C911.756 110.706 909.524 108.367 908.688 105.552C908.496 104.905 908.119 104.281 907.81 103.607C904.512 102.402 901.649 103.366 898.221 104.139C897.946 105.346 897.41 106.385 897.534 107.393C897.98 111.036 899.348 114.548 902.363 117.727C903.358 118.776 904.326 119.889 906.458 120.471C907.07 120.356 907.899 120.328 908.468 120.073C911.547 118.694 914.726 117.385 917.499 115.646C917.325 115.12 917.358 114.6 916.986 114.243Z" fill="#FFA227"/>
<path d="M485.043 101.388C485.043 104.856 480.549 107.668 475.006 107.668C469.463 107.668 464.969 104.856 464.969 101.388C464.969 97.9204 469.463 95.1089 475.006 95.1089C480.549 95.1089 485.043 97.9204 485.043 101.388Z" fill="#FFA227"/>
<path d="M1085.31 205.389C1085.31 208.857 1080.81 211.669 1075.27 211.669C1069.73 211.669 1065.23 208.857 1065.23 205.389C1065.23 201.921 1069.73 199.11 1075.27 199.11C1080.81 199.11 1085.31 201.92 1085.31 205.389Z" fill="#FFA227"/>
<path d="M767.98 23.962C767.98 27.4299 763.486 30.2415 757.943 30.2415C752.4 30.2415 747.906 27.4299 747.906 23.962C747.906 20.4942 752.4 17.6826 757.943 17.6826C763.486 17.6826 767.98 20.493 767.98 23.962Z" fill="#FFA227"/>
<path d="M1275.38 28.2711C1275.38 31.739 1270.89 34.5505 1265.35 34.5505C1259.8 34.5505 1255.31 31.739 1255.31 28.2711C1255.31 24.8032 1259.8 21.9917 1265.35 21.9917C1270.89 21.9917 1275.38 24.8032 1275.38 28.2711Z" fill="#FFA227"/>
<path d="M1238.8 500.956C1238.8 504.424 1234.31 507.236 1228.77 507.236C1223.22 507.236 1218.73 504.424 1218.73 500.956C1218.73 497.488 1223.22 494.677 1228.77 494.677C1234.31 494.677 1238.8 497.488 1238.8 500.956Z" fill="#FFA227"/>
<path d="M30.949 263.886C30.949 267.354 26.455 270.166 20.912 270.166C15.369 270.166 10.875 267.354 10.875 263.886C10.875 260.418 15.369 257.607 20.912 257.607C26.455 257.607 30.949 260.418 30.949 263.886Z" fill="#FFA227"/>
<path d="M177.899 113.033C173.915 110.991 169.323 109.399 166.163 106.623C165.308 106.867 164.483 106.954 164.031 107.258C162.371 108.374 160.784 109.537 159.281 110.738C158.748 111.163 158.537 111.745 158.156 112.287C158.557 112.761 158.814 113.225 159.281 113.58C160.247 114.314 161.304 115.005 162.362 115.688C164.905 117.332 167.585 118.899 169.998 120.614C172.712 122.544 175.198 124.6 177.774 126.607C178.53 127.195 179.119 127.911 181.355 127.922C184.321 126.142 187.491 124.036 190.171 121.534C189.535 120.859 189.092 120.258 188.465 119.744C185.399 117.228 181.809 115.038 177.899 113.033Z" fill="#FFA227"/>
<path d="M795.298 275.273C792.211 273.69 788.653 272.457 786.204 270.306C785.541 270.496 784.903 270.563 784.552 270.799C783.266 271.664 782.036 272.565 780.872 273.495C780.46 273.825 780.296 274.275 780 274.696C780.311 275.062 780.51 275.423 780.872 275.697C781.62 276.266 782.439 276.801 783.26 277.331C785.23 278.605 787.308 279.819 789.178 281.148C791.282 282.643 793.207 284.238 795.205 285.792C795.791 286.248 796.249 286.803 797.98 286.811C800.279 285.433 802.735 283.799 804.811 281.861C804.317 281.338 803.975 280.872 803.489 280.474C801.108 278.523 798.326 276.826 795.298 275.273Z" fill="#FFA227"/>
<path d="M208.235 529.128C205.148 527.545 201.59 526.312 199.142 524.161C198.479 524.351 197.84 524.418 197.49 524.654C196.203 525.519 194.974 526.42 193.81 527.35C193.397 527.678 193.233 528.13 192.938 528.55C193.248 528.917 193.448 529.278 193.81 529.552C194.557 530.121 195.377 530.656 196.198 531.186C198.168 532.46 200.245 533.674 202.116 535.003C204.219 536.498 206.144 538.093 208.143 539.647C208.728 540.103 209.186 540.658 210.917 540.666C213.217 539.288 215.673 537.654 217.748 535.716C217.255 535.193 216.912 534.727 216.426 534.329C214.047 532.378 211.266 530.681 208.235 529.128Z" fill="#FFA227"/>
<path d="M104.563 590.462C101.476 588.879 97.9183 587.646 95.4698 585.495C94.8068 585.685 94.1683 585.752 93.818 585.988C92.5316 586.853 91.3017 587.754 90.1377 588.684C89.7252 589.014 89.5613 589.464 89.2656 589.884C89.5764 590.251 89.776 590.612 90.1377 590.886C90.8854 591.455 91.7047 591.99 92.5259 592.52C94.496 593.794 96.5735 595.008 98.4419 596.337C100.546 597.832 102.471 599.427 104.469 600.981C105.055 601.437 105.512 601.992 107.243 602C109.543 600.622 111.999 598.988 114.075 597.05C113.581 596.527 113.238 596.061 112.752 595.663C110.374 593.712 107.592 592.015 104.563 590.462Z" fill="#FFA227"/>
<path d="M1228.9 542.48C1225.82 540.898 1222.26 539.664 1219.81 537.514C1219.15 537.703 1218.51 537.771 1218.16 538.006C1216.87 538.871 1215.64 539.773 1214.48 540.702C1214.07 541.031 1213.9 541.482 1213.61 541.903C1213.92 542.269 1214.12 542.63 1214.48 542.905C1215.23 543.474 1216.04 544.009 1216.87 544.539C1218.84 545.813 1220.91 547.026 1222.78 548.356C1224.89 549.851 1226.81 551.445 1228.81 553C1229.39 553.456 1229.85 554.011 1231.58 554.019C1233.88 552.64 1236.34 551.007 1238.41 549.069C1237.92 548.545 1237.58 548.08 1237.09 547.682C1234.72 545.731 1231.93 544.033 1228.9 542.48Z" fill="#FFA227"/>
<path d="M1088.39 260.886C1083.68 259.365 1079.72 257.329 1076.85 254.516C1075.37 253.071 1073.87 251.634 1072.1 249.912C1071.09 249.946 1070.09 249.815 1069.36 250.033C1064.56 251.455 1063.72 253.014 1066.21 255.989C1068.77 259.049 1071.98 261.852 1075.71 264.392C1077.76 265.793 1080.13 267.016 1082.4 268.291C1083.31 268.805 1084.35 269.216 1086.16 269.091C1089.25 267.617 1090.97 265.319 1092.69 263.209C1091.88 261.7 1089.97 261.399 1088.39 260.886Z" fill="#FFA227"/>
<path d="M1314.06 270.038C1313.37 269.711 1312.07 269.883 1311.37 269.844C1310.91 270.058 1310.76 270.101 1310.67 270.172C1310.4 270.4 1310.1 270.623 1309.89 270.874C1305.86 275.745 1300.13 279.612 1292.59 282.427C1291.43 282.86 1290.16 283.265 1289.5 284.34C1289.61 284.617 1289.6 285.165 1290.03 285.483C1291.59 286.653 1293.25 287.775 1294.97 288.859C1295.93 289.466 1297.25 289.517 1298.37 289.107C1299.93 288.532 1301.47 287.885 1302.83 287.138C1308.02 284.302 1312.56 281.072 1316.81 277.689C1318.2 276.578 1319.61 275.44 1320.52 274.069C1318.93 272.316 1316.46 271.174 1314.06 270.038Z" fill="#FFA227"/>
<path d="M1353.28 352.441C1353.69 351.78 1353.69 351.134 1352.92 350.622C1350.03 349.866 1347.12 349.25 1344.44 348.365C1341.62 347.434 1338.87 346.365 1336.36 345.136C1333.99 343.975 1331.99 342.528 1329.88 341.245C1326.84 341.507 1325.08 342.682 1323.36 343.735C1322.84 345.279 1324.21 346.225 1325.49 347.168C1330.69 351.001 1336.86 354.08 1344.01 356.377C1344.92 356.671 1345.99 356.775 1346.9 356.951C1349.96 355.828 1352.09 354.39 1353.28 352.441Z" fill="#FFA227"/>
<path d="M110.387 250.219C109.882 250.146 109.27 250.359 108.633 250.451C108.236 251.746 107.946 252.965 107.479 254.157C105.708 258.678 102.235 262.687 97.8956 266.427C97.0085 267.192 96.112 267.952 95.3906 268.568C95.4942 269.764 96.419 270.363 97.6207 270.847C99.4156 271.571 101.192 272.315 103.007 273.018C105.774 274.089 107.422 274.025 109.362 272.452C111.025 271.104 112.491 269.624 113.67 268.09C116.794 264.022 118.514 259.659 120.092 255.279C120.252 254.835 120.115 254.349 120.115 253.962C117.747 252.469 112.937 250.59 110.387 250.219Z" fill="#FFA227"/>
<path d="M413.652 149.583C411.658 148.597 410.055 147.253 407.249 146.704C406.734 147.059 406.102 147.347 405.813 147.735C405.504 148.151 405.499 148.66 405.391 149.131C404.632 152.446 401.777 154.963 397.662 156.968C396.225 157.669 394.627 158.242 393.094 158.867C392.087 159.277 391.068 159.675 390.282 159.987C389.401 161.193 390.09 162.021 391.022 162.82C393 164.516 394.921 166.239 396.984 167.894C397.584 168.377 398.585 168.666 399.568 169.121C401.124 168.464 402.647 167.987 403.834 167.286C407.271 165.257 410.631 163.173 413.899 161.038C415.259 160.15 416.455 159.128 417.461 158.07C418.935 156.517 420.246 154.888 419.851 152.839C417.623 151.663 415.683 150.587 413.652 149.583Z" fill="#FFA227"/>
<path d="M1377.4 556.409C1369.86 558.916 1362.09 561.097 1353.93 562.686C1350.58 563.337 1347.2 563.919 1343.87 564.584C1342.91 564.774 1342.04 565.144 1341.07 565.452C1341.48 568.226 1341.48 570.877 1343.49 573.147C1345.2 573.634 1346.5 573.229 1347.77 572.977C1355.18 571.517 1362.58 570.058 1369.95 568.525C1373.27 567.835 1376.54 567.038 1379.75 566.173C1382.26 565.498 1384.66 564.658 1387.08 563.862C1388.19 563.496 1389.01 562.943 1389.34 561.837C1388.24 559.534 1387.03 557.012 1383.45 555.165C1380.92 555.285 1379.16 555.826 1377.4 556.409Z" fill="#FFA227"/>
<path d="M1203.49 199.407C1195.15 200.546 1186.72 201.336 1178.17 201.489C1174.67 201.551 1171.17 201.541 1167.67 201.617C1166.67 201.64 1165.67 201.849 1164.61 201.981C1163.8 204.72 1162.66 207.274 1163.61 209.797C1165.05 210.556 1166.48 210.384 1167.81 210.358C1175.57 210.201 1183.33 210.047 1191.09 209.815C1194.58 209.71 1198.07 209.494 1201.54 209.205C1204.24 208.978 1206.92 208.574 1209.59 208.217C1210.82 208.053 1211.85 207.657 1212.64 206.649C1212.58 204.246 1212.5 201.614 1209.85 199.231C1207.36 198.918 1205.43 199.141 1203.49 199.407Z" fill="#FFA227"/>
<path d="M931.802 11.3475C928.089 10.9516 924.933 10.6747 921.821 10.2658C918.828 9.8722 915.996 9.13927 913.404 8.12353C910.726 7.07362 908.151 5.92237 905.369 4.74756C904.571 5.16469 903.697 5.43336 903.311 5.87053C902.811 6.43378 902.604 7.12311 902.444 7.77356C901.86 10.1361 900.937 12.4304 899.301 14.6045C899.129 14.8307 899.28 15.1524 899.28 15.3716C899.546 15.5754 899.691 15.7863 899.935 15.8511C900.485 15.9973 901.079 16.1422 901.666 16.1622C907.791 16.3684 913.64 17.4231 919.531 18.3657C922.328 18.8135 925.155 19.1859 927.982 19.5512C929.237 19.7126 930.408 19.5523 931.453 18.6898C931.689 16.3897 933.723 13.9458 931.802 11.3475Z" fill="#FFA227"/>
<path d="M1205.83 112.595C1205.26 112.045 1204.41 111.605 1203.68 111.118C1200.6 109.059 1198.37 106.72 1197.53 103.904C1197.34 103.258 1196.96 102.633 1196.65 101.958C1193.36 100.754 1190.49 101.717 1187.07 102.49C1186.79 103.697 1186.25 104.736 1186.38 105.744C1186.82 109.387 1188.19 112.899 1191.21 116.078C1192.2 117.126 1193.17 118.24 1195.3 118.821C1195.91 118.707 1196.74 118.677 1197.31 118.422C1200.39 117.043 1203.57 115.734 1206.34 113.995C1206.17 113.471 1206.2 112.952 1205.83 112.595Z" fill="#FFA227"/>
<path d="M66.3983 83.2523C66.3983 86.4279 62.2829 89.0026 57.2069 89.0026C52.131 89.0026 48.0156 86.4279 48.0156 83.2523C48.0156 80.0766 52.131 77.502 57.2069 77.502C62.2829 77.5031 66.3983 80.0766 66.3983 83.2523Z" fill="#FFA227"/>
<path d="M79.242 562.151C79.242 565.326 75.1266 567.901 70.0507 567.901C64.9748 567.901 60.8594 565.326 60.8594 562.151C60.8594 558.975 64.9748 556.4 70.0507 556.4C75.1266 556.4 79.242 558.975 79.242 562.151Z" fill="#FFA227"/>
<path d="M167.32 393.074C167.32 396.25 163.205 398.824 158.129 398.824C153.053 398.824 148.938 396.25 148.938 393.074C148.938 389.898 153.053 387.324 158.129 387.324C163.205 387.324 167.32 389.898 167.32 393.074Z" fill="#FFA227"/>
<path d="M38.3242 350.449C36.3409 351.06 35.322 352.171 34.0996 353.117C30.9561 355.549 27.0328 357.288 22.5182 358.572C18.1749 359.807 13.6659 360.613 8.89317 360.805C7.67645 360.855 6.4409 360.864 5.5745 361.525C4.98686 363.869 5.44831 366.475 6.98145 369.192C7.56533 369.28 8.28105 369.485 8.98735 369.472C9.88764 369.456 10.7898 369.287 11.6732 369.141C23.3827 367.205 33.0279 363.187 41.1381 357.644C42.1627 356.944 43.0969 356.17 43.8692 355.355C44.372 354.824 44.5095 354.157 44.8297 353.511C42.628 352.329 41.3641 350.658 38.3242 350.449Z" fill="#FFA227"/>
<path d="M182.311 0C181.933 0.374715 181.428 0.737647 181.168 1.1595C180.731 1.86886 180.462 2.61711 180.102 3.34533C177.764 8.05402 173.728 11.9579 166.74 14.4972C165.166 15.0699 163.693 15.7581 162.209 16.4238C159.883 17.4679 159.595 18.6674 161.525 20.0355C163.134 21.1749 164.91 22.226 166.692 23.2618C168.972 24.5863 170.044 24.6511 172.817 23.7532C173.491 23.5352 174.154 23.2924 174.766 23.0132C178.71 21.215 182.415 19.2377 185.652 16.9506C189.724 14.073 192.744 10.7689 195.281 7.28691C195.842 6.51627 196.445 5.71028 195.586 4.61913C191.845 3.18626 187.845 1.6438 183.818 0.129619C183.468 -0.00235655 182.942 0.0483123 182.311 0Z" fill="#FFA227"/>
<path d="M607.627 45.502C606.935 45.1744 605.64 45.3465 604.939 45.3076C604.478 45.5221 604.329 45.5645 604.24 45.6364C603.963 45.8638 603.662 46.0865 603.453 46.3375C599.426 51.2088 593.7 55.0761 586.155 57.8912C584.995 58.3236 583.731 58.729 583.062 59.8037C583.179 60.0806 583.166 60.6285 583.592 60.9467C585.153 62.1168 586.816 63.2385 588.532 64.3226C589.493 64.9295 590.813 64.9813 591.932 64.5713C593.499 63.9962 595.032 63.3493 596.397 62.6022C601.588 59.7659 606.126 56.5361 610.375 53.1531C611.77 52.0419 613.174 50.9036 614.087 49.5332C612.499 47.781 610.028 46.638 607.627 45.502Z" fill="#FFA227"/>
<path d="M306.081 233.547C299.291 230.308 292.878 226.804 287.158 222.826C284.817 221.197 282.56 219.52 280.202 217.901C279.524 217.436 278.624 217.098 277.774 216.676C273.913 218.063 270.067 219.174 267.609 221.262C267.615 222.437 268.747 223.007 269.645 223.628C274.859 227.227 280.072 230.827 285.374 234.373C287.762 235.971 290.286 237.497 292.884 238.962C294.912 240.106 297.133 241.118 299.301 242.163C300.299 242.645 301.442 242.876 303.186 242.602C306.074 241.018 309.232 239.277 310.417 236.469C309.183 235.075 307.663 234.302 306.081 233.547Z" fill="#FFA227"/>
<path d="M735.196 250.008C736.217 249.953 737.21 249.687 738.136 249.533C739.773 247.568 740.357 245.643 739.72 243.593C739.504 242.897 738.961 242.348 737.871 242.172C734.776 242.491 731.789 242.933 728.768 243.073C725.587 243.22 722.347 243.229 719.181 243.019C716.19 242.821 713.261 242.26 710.389 241.871C708.035 243.102 707.541 244.68 706.969 246.147C707.841 247.627 709.807 247.974 711.689 248.348C719.347 249.872 727.19 250.433 735.196 250.008Z" fill="#FFA227"/>
<path d="M1435.22 342.646C1436.24 342.592 1437.24 342.325 1438.16 342.171C1439.8 340.207 1440.38 338.281 1439.75 336.231C1439.53 335.536 1438.99 334.987 1437.9 334.81C1434.8 335.129 1431.82 335.571 1428.8 335.711C1425.61 335.859 1422.37 335.867 1419.21 335.656C1416.22 335.458 1413.29 334.897 1410.42 334.508C1408.06 335.738 1407.57 337.317 1407 338.785C1407.87 340.263 1409.83 340.611 1411.72 340.986C1419.37 342.51 1427.22 343.07 1435.22 342.646Z" fill="#FFA227"/>
<path d="M1280.6 202.068C1281.83 203.794 1281.47 205.806 1283.07 207.719C1286.37 207.319 1288.85 206.134 1291.4 204.965C1291.45 204.422 1291.63 203.942 1291.52 203.492C1290.75 200.375 1289.54 197.326 1287.44 194.447C1285.78 192.164 1283.4 190.18 1280.32 188.57C1279.57 188.181 1278.5 188.04 1277.38 187.733C1275.83 188.973 1274.4 190.078 1273.04 191.21C1272.7 191.501 1272.54 191.883 1272.18 192.379C1273.78 193.949 1275.53 195.496 1276.98 197.15C1278.36 198.73 1279.43 200.418 1280.6 202.068Z" fill="#FFA227"/>
<path d="M1371.24 111.912C1373.04 112.635 1374.81 113.38 1376.63 114.083C1379.4 115.154 1381.04 115.091 1382.98 113.518C1384.65 112.171 1386.11 110.69 1387.29 109.154C1390.42 105.088 1392.14 100.724 1393.71 96.3443C1393.87 95.9001 1393.73 95.4146 1393.73 95.0269C1391.37 93.5328 1386.56 91.6557 1384.01 91.2845C1383.5 91.2114 1382.89 91.4247 1382.25 91.5166C1381.86 92.8116 1381.57 94.0301 1381.1 95.2225C1379.33 99.7439 1375.86 103.753 1371.52 107.493C1370.63 108.257 1369.73 109.017 1369.01 109.634C1369.12 110.827 1370.04 111.427 1371.24 111.912Z" fill="#FFA227"/>
<path d="M1180.72 244.432C1178.99 245.276 1177.25 246.113 1175.53 246.972C1171.72 248.878 1168.18 250.965 1164.72 253.108C1162.82 254.284 1160.91 255.457 1159.22 256.757C1157.52 258.065 1156.09 259.475 1155.2 261.072C1154.69 261.99 1153.98 262.837 1153.19 263.662C1152.83 264.034 1152.43 264.394 1152.04 264.752C1151.19 265.532 1150.47 266.353 1149.87 267.209C1151.14 265.737 1153.1 264.66 1156.38 262.713C1158.41 261.456 1160.4 260.173 1162.44 258.931C1165.87 256.858 1169.44 254.891 1173.24 253.091C1174.31 252.579 1175.38 252.056 1176.34 251.587C1177.95 249.013 1180.45 246.844 1182.45 244.463C1182.06 244.378 1181.69 244.299 1181.28 244.212C1181.03 244.31 1180.87 244.363 1180.72 244.432Z" fill="#FFA227"/>
<path d="M1148.9 268.892C1147.29 272.424 1147.14 275.985 1148.56 279.558C1149.75 282.589 1151.77 285.404 1154.36 288.062C1156.65 290.416 1159.29 292.611 1162.18 294.688C1166.83 298.024 1171.74 301.201 1176.82 304.279C1180.35 306.418 1183.68 308.668 1186.67 311.113C1188.36 312.499 1189.94 313.929 1191.26 315.469C1193.26 317.807 1194.64 320.292 1195.65 322.862C1197.24 326.913 1197.89 331.029 1197.8 335.196C1197.71 339.974 1196.92 344.712 1195.52 349.407C1194.61 352.425 1193.56 355.426 1192.58 358.434C1191.81 360.77 1191.12 363.112 1190.72 365.487C1190.29 367.982 1190.23 370.474 1190.97 372.952C1191.16 373.581 1191.46 374.196 1191.72 374.816C1191.91 375.276 1192.42 375.524 1193.16 375.644C1194.76 373.138 1197.22 370.957 1199.22 368.625C1198.38 367.003 1198.18 366.439 1197.92 365.143C1197.55 363.339 1197.56 361.532 1197.8 359.725C1198.11 357.437 1198.71 355.176 1199.44 352.93C1200.41 349.921 1201.46 346.921 1202.41 343.906C1203.79 339.492 1204.66 335.038 1204.94 330.539C1205.21 326.381 1204.88 322.25 1203.57 318.16C1202.95 316.225 1202.15 314.322 1201.1 312.461C1199.41 309.495 1196.9 306.821 1193.84 304.336C1190.88 301.937 1187.63 299.703 1184.15 297.596C1179.36 294.695 1174.72 291.706 1170.29 288.584C1167.15 286.369 1164.25 284.045 1161.77 281.519C1159.41 279.126 1157.52 276.606 1156.23 273.909C1154.64 270.588 1154.44 267.242 1155.47 263.848C1155.6 263.399 1155.89 263.035 1156.4 262.716C1153.12 264.662 1151.16 265.739 1149.89 267.211C1149.51 267.756 1149.16 268.312 1148.9 268.892Z" fill="#FFA227"/>
<path d="M782.18 187.729C782.18 190.905 778.064 193.479 772.988 193.479C767.912 193.479 763.797 190.905 763.797 187.729C763.797 184.553 767.912 181.979 772.988 181.979C778.066 181.979 782.18 184.553 782.18 187.729Z" fill="#7E91E0"/>
<path d="M404.305 363.703C404.305 365.891 401.47 367.664 397.973 367.664C394.475 367.664 391.641 365.891 391.641 363.703C391.641 361.515 394.475 359.741 397.973 359.741C401.469 359.741 404.305 361.516 404.305 363.703Z" fill="#7E91E0"/>
<path d="M332.912 83.2501C332.987 83.2083 333.063 83.1664 333.14 83.1245C333.002 83.1966 332.906 83.2455 332.906 83.2455L332.912 83.2501Z" fill="black"/>
<path d="M348.887 173.775C339.587 172.794 327.743 171.169 324.319 164.738C322.246 160.842 324.374 156.738 326.888 153.138C333.748 143.319 345.482 135.178 359.544 129.179C359.561 129.172 359.544 129.164 359.548 129.155L345.06 129.554C330.441 136.064 317.083 145.432 311.691 156.277C305.775 168.172 322.17 172.51 337.498 174.327L350.754 174.118C350.413 173.914 348.727 173.757 348.887 173.775Z" fill="#FFA227"/>
<path d="M340.864 196.935C335.873 195.01 341.416 189.345 342.764 187.162C345.433 182.846 348.102 178.53 350.771 174.214C350.792 174.181 350.767 174.149 350.714 174.118L337.459 174.328C334.422 179.238 331.384 184.149 328.348 189.061C326.796 191.571 323.374 195.325 328.145 197.164C330.164 197.943 333.98 197.703 336.246 197.643C336.86 197.626 341.71 197.261 340.864 196.935Z" fill="#FFA227"/>
<path d="M347.069 77.5457C346.696 77.6953 346.362 77.832 346.054 77.9581C345.449 78.2055 344.963 78.4035 344.524 78.5673C343.488 78.9562 342.746 79.14 341.552 79.2013C339.303 80.2087 337.488 81.0501 336.094 81.7088C346.909 82.133 357.526 80.3077 363.474 75.3221C363.468 75.3186 363.462 75.3151 363.457 75.3115C360.697 74.9568 356.437 74.6575 352.661 75.3987C352.297 75.6226 348.253 77.0696 347.069 77.5457Z" fill="#FFA227"/>
<path d="M322.627 75.606C313.893 71.2897 312.695 65.8729 315.781 59.5039C321.715 47.2538 336.15 37.4523 354.495 32.0118C355.588 31.6878 350.171 31.2494 349.905 31.2388C347.511 31.1399 344.055 30.9289 341.789 31.6018C329.085 35.3689 318.274 41.0993 310.667 48.5229C303.517 55.4999 295.692 66.0885 305.715 73.3884C310.136 76.6076 317.206 79.1022 325.027 80.5068C324.605 80.7036 324.188 80.9074 323.772 81.1089L330.157 78.2915C327.532 77.7035 325.091 76.8233 322.627 75.606Z" fill="#FFA227"/>
<path d="M349.848 128.432C329.496 129.086 306.387 116.445 311.414 103.213C314.307 95.5972 322.766 88.6332 332.91 83.254L332.905 83.2493C332.905 83.2493 333.005 83.1998 333.15 83.1267C334.072 82.6413 335.003 82.164 335.948 81.7057C335.994 81.708 336.039 81.708 336.084 81.7092C337.476 81.0505 339.292 80.2091 341.542 79.2017C344.464 78.0009 347.43 76.9286 350.37 76.0213C351.133 75.7856 351.681 75.6218 352.052 75.517C352.596 75.3626 352.753 75.339 352.655 75.3979C356.431 74.6568 360.692 74.9561 363.451 75.3108C363.379 75.2601 363.306 75.2106 363.234 75.1599C354.469 70.998 340.555 74.3775 332.385 77.4259C331.641 77.704 330.899 77.995 330.159 78.2908L323.774 81.1082C313.32 86.1575 304.146 92.9047 299.609 100.443C293.83 110.043 301.481 118.88 314.624 124.11C323.894 127.798 334.355 129.237 345.036 129.554L359.524 129.155C359.627 128.882 350.945 128.397 349.848 128.432Z" fill="#FFA227"/>
</g>
<g opacity="0.5" clip-path="url(#clip1_7937_4729)">
<path d="M1440 1024H1011.26V977.893H1440V1024Z" fill="url(#paint44_linear_7937_4729)"/>
<path d="M1176.74 1024H747.999V977.893H1176.74V1024Z" fill="url(#paint45_linear_7937_4729)"/>
<path d="M1564.11 979.106H1135.37V933H1564.11V979.106Z" fill="url(#paint46_linear_7937_4729)"/>
<path d="M1300.85 979.106H872.108V933H1300.85V979.106Z" fill="url(#paint47_linear_7937_4729)"/>
<path d="M1688.22 933H1259.48V886.893H1688.22V933Z" fill="url(#paint48_linear_7937_4729)"/>
<path d="M1424.96 933H996.218V886.893H1424.96V933Z" fill="url(#paint49_linear_7937_4729)"/>
<path d="M1812.32 888.106H1383.59V842H1812.32V888.106Z" fill="url(#paint50_linear_7937_4729)"/>
<path d="M1549.07 888.106H1120.33V842H1549.07V888.106Z" fill="url(#paint51_linear_7937_4729)"/>
<path d="M1673.18 842H1244.44V795.893H1673.18V842Z" fill="url(#paint52_linear_7937_4729)"/>
<path d="M1797.28 797.106H1368.54V751H1797.28V797.106Z" fill="url(#paint53_linear_7937_4729)"/>
</g>
</g>
<defs>
<filter id="filter0_f_7937_4729" x="-157.86" y="-355.86" width="1250.97" height="1735.65" filterUnits="userSpaceOnUse" color-interpolation-filters="sRGB">
<feFlood flood-opacity="0" result="BackgroundImageFix"/>
<feBlend mode="normal" in="SourceGraphic" in2="BackgroundImageFix" result="shape"/>
<feGaussianBlur stdDeviation="206.43" result="effect1_foregroundBlur_7937_4729"/>
</filter>
<filter id="filter1_f_7937_4729" x="347.894" y="-355.86" width="1250.97" height="1735.65" filterUnits="userSpaceOnUse" color-interpolation-filters="sRGB">
<feFlood flood-opacity="0" result="BackgroundImageFix"/>
<feBlend mode="normal" in="SourceGraphic" in2="BackgroundImageFix" result="shape"/>
<feGaussianBlur stdDeviation="206.43" result="effect1_foregroundBlur_7937_4729"/>
</filter>
<filter id="filter2_f_7937_4729" x="440.41" y="270" width="350.984" height="325.02" filterUnits="userSpaceOnUse" color-interpolation-filters="sRGB">
<feFlood flood-opacity="0" result="BackgroundImageFix"/>
<feBlend mode="normal" in="SourceGraphic" in2="BackgroundImageFix" result="shape"/>
<feGaussianBlur stdDeviation="25" result="effect1_foregroundBlur_7937_4729"/>
</filter>
<filter id="filter3_f_7937_4729" x="-9.58984" y="-10" width="270.984" height="245.02" filterUnits="userSpaceOnUse" color-interpolation-filters="sRGB">
<feFlood flood-opacity="0" result="BackgroundImageFix"/>
<feBlend mode="normal" in="SourceGraphic" in2="BackgroundImageFix" result="shape"/>
<feGaussianBlur stdDeviation="5" result="effect1_foregroundBlur_7937_4729"/>
</filter>
<filter id="filter4_f_7937_4729" x="65.4102" y="710.02" width="225" height="305" filterUnits="userSpaceOnUse" color-interpolation-filters="sRGB">
<feFlood flood-opacity="0" result="BackgroundImageFix"/>
<feBlend mode="normal" in="SourceGraphic" in2="BackgroundImageFix" result="shape"/>
<feGaussianBlur stdDeviation="20" result="effect1_foregroundBlur_7937_4729"/>
</filter>
<linearGradient id="paint0_linear_7937_4729" x1="615.902" y1="320" x2="615.902" y2="545.02" gradientUnits="userSpaceOnUse">
<stop stop-color="#02FBFE"/>
<stop offset="0.5" stop-color="#F28706"/>
<stop offset="1"/>
</linearGradient>
<linearGradient id="paint1_linear_7937_4729" x1="125.902" y1="-0.000259399" x2="125.902" y2="225.02" gradientUnits="userSpaceOnUse">
<stop stop-color="#02FBFE"/>
<stop offset="0.5" stop-color="#F28706"/>
<stop offset="1"/>
</linearGradient>
<linearGradient id="paint2_linear_7937_4729" x1="250.41" y1="862.52" x2="105.41" y2="862.52" gradientUnits="userSpaceOnUse">
<stop stop-color="#02FBFE"/>
<stop offset="0.5" stop-color="#F28706"/>
<stop offset="1"/>
</linearGradient>
<linearGradient id="paint3_linear_7937_4729" x1="158.364" y1="226.254" x2="190.326" y2="188.974" gradientUnits="userSpaceOnUse">
<stop stop-color="#22A5AF"/>
<stop offset="0.4944" stop-color="#47C3CD"/>
<stop offset="1" stop-color="#22A5AF"/>
</linearGradient>
<linearGradient id="paint4_linear_7937_4729" x1="638.092" y1="16.0973" x2="687.482" y2="16.0973" gradientUnits="userSpaceOnUse">
<stop stop-color="#5BD3DD"/>
<stop offset="0.9916" stop-color="#22A5AF"/>
</linearGradient>
<linearGradient id="paint5_linear_7937_4729" x1="1398.78" y1="31.1288" x2="1448.17" y2="31.1288" gradientUnits="userSpaceOnUse">
<stop stop-color="#5BD3DD"/>
<stop offset="0.9916" stop-color="#22A5AF"/>
</linearGradient>
<linearGradient id="paint6_linear_7937_4729" x1="98.8296" y1="358.34" x2="133.122" y2="358.34" gradientUnits="userSpaceOnUse">
<stop stop-color="#5BD3DD"/>
<stop offset="0.9916" stop-color="#22A5AF"/>
</linearGradient>
<linearGradient id="paint7_linear_7937_4729" x1="53.5608" y1="226.433" x2="93.061" y2="226.433" gradientUnits="userSpaceOnUse">
<stop stop-color="#5BD3DD"/>
<stop offset="0.9916" stop-color="#22A5AF"/>
</linearGradient>
<linearGradient id="paint8_linear_7937_4729" x1="312.297" y1="384.358" x2="339.08" y2="384.358" gradientUnits="userSpaceOnUse">
<stop stop-color="#5BD3DD"/>
<stop offset="0.9916" stop-color="#22A5AF"/>
</linearGradient>
<linearGradient id="paint9_linear_7937_4729" x1="1169.06" y1="472.174" x2="1195.84" y2="472.174" gradientUnits="userSpaceOnUse">
<stop stop-color="#5BD3DD"/>
<stop offset="0.9916" stop-color="#22A5AF"/>
</linearGradient>
<linearGradient id="paint10_linear_7937_4729" x1="1382.29" y1="393.076" x2="1415.3" y2="393.076" gradientUnits="userSpaceOnUse">
<stop stop-color="#5BD3DD"/>
<stop offset="0.9916" stop-color="#22A5AF"/>
</linearGradient>
<linearGradient id="paint11_linear_7937_4729" x1="1410.53" y1="489.265" x2="1443.53" y2="489.265" gradientUnits="userSpaceOnUse">
<stop stop-color="#5BD3DD"/>
<stop offset="0.9916" stop-color="#22A5AF"/>
</linearGradient>
<linearGradient id="paint12_linear_7937_4729" x1="548.266" y1="169.121" x2="583.215" y2="169.121" gradientUnits="userSpaceOnUse">
<stop stop-color="#5BD3DD"/>
<stop offset="0.9916" stop-color="#22A5AF"/>
</linearGradient>
<linearGradient id="paint13_linear_7937_4729" x1="1115.88" y1="173.392" x2="1141.94" y2="173.392" gradientUnits="userSpaceOnUse">
<stop stop-color="#5BD3DD"/>
<stop offset="0.9916" stop-color="#22A5AF"/>
</linearGradient>
<linearGradient id="paint14_linear_7937_4729" x1="144.203" y1="174.328" x2="172.046" y2="174.328" gradientUnits="userSpaceOnUse">
<stop stop-color="#5BD3DD"/>
<stop offset="0.9916" stop-color="#22A5AF"/>
</linearGradient>
<linearGradient id="paint15_linear_7937_4729" x1="391.095" y1="101.387" x2="411.079" y2="101.387" gradientUnits="userSpaceOnUse">
<stop stop-color="#5BD3DD"/>
<stop offset="0.9916" stop-color="#22A5AF"/>
</linearGradient>
<linearGradient id="paint16_linear_7937_4729" x1="354.53" y1="263.875" x2="376.54" y2="290.269" gradientUnits="userSpaceOnUse">
<stop stop-color="#5BD3DD"/>
<stop offset="0.9916" stop-color="#22A5AF"/>
</linearGradient>
<linearGradient id="paint17_linear_7937_4729" x1="149.515" y1="453.203" x2="180.537" y2="453.203" gradientUnits="userSpaceOnUse">
<stop stop-color="#5BD3DD"/>
<stop offset="0.9916" stop-color="#22A5AF"/>
</linearGradient>
<linearGradient id="paint18_linear_7937_4729" x1="1.62387" y1="589.38" x2="32.6467" y2="589.38" gradientUnits="userSpaceOnUse">
<stop stop-color="#5BD3DD"/>
<stop offset="0.9916" stop-color="#22A5AF"/>
</linearGradient>
<linearGradient id="paint19_linear_7937_4729" x1="1231.23" y1="68.7026" x2="1266.89" y2="68.7026" gradientUnits="userSpaceOnUse">
<stop stop-color="#5BD3DD"/>
<stop offset="0.9916" stop-color="#22A5AF"/>
</linearGradient>
<linearGradient id="paint20_linear_7937_4729" x1="499.453" y1="53.8224" x2="520.273" y2="53.8224" gradientUnits="userSpaceOnUse">
<stop stop-color="#5BD3DD"/>
<stop offset="0.9916" stop-color="#22A5AF"/>
</linearGradient>
<linearGradient id="paint21_linear_7937_4729" x1="811.437" y1="228.725" x2="860.827" y2="228.725" gradientUnits="userSpaceOnUse">
<stop stop-color="#5BD3DD"/>
<stop offset="0.9916" stop-color="#22A5AF"/>
</linearGradient>
<linearGradient id="paint22_linear_7937_4729" x1="346.843" y1="6.51961" x2="396.233" y2="6.51961" gradientUnits="userSpaceOnUse">
<stop stop-color="#5BD3DD"/>
<stop offset="0.9916" stop-color="#22A5AF"/>
</linearGradient>
<linearGradient id="paint23_linear_7937_4729" x1="4.03012" y1="440.651" x2="39.1707" y2="440.651" gradientUnits="userSpaceOnUse">
<stop stop-color="#5BD3DD"/>
<stop offset="0.9916" stop-color="#22A5AF"/>
</linearGradient>
<linearGradient id="paint24_linear_7937_4729" x1="981.204" y1="106.624" x2="1023.66" y2="106.624" gradientUnits="userSpaceOnUse">
<stop stop-color="#5BD3DD"/>
<stop offset="0.9916" stop-color="#22A5AF"/>
</linearGradient>
<linearGradient id="paint25_linear_7937_4729" x1="157.344" y1="573.117" x2="180.932" y2="573.117" gradientUnits="userSpaceOnUse">
<stop stop-color="#5BD3DD"/>
<stop offset="0.9916" stop-color="#22A5AF"/>
</linearGradient>
<linearGradient id="paint26_linear_7937_4729" x1="1126.12" y1="61.9117" x2="1154.07" y2="61.9117" gradientUnits="userSpaceOnUse">
<stop stop-color="#5BD3DD"/>
<stop offset="0.9916" stop-color="#22A5AF"/>
</linearGradient>
<linearGradient id="paint27_linear_7937_4729" x1="761.171" y1="110.635" x2="794.04" y2="110.635" gradientUnits="userSpaceOnUse">
<stop stop-color="#5BD3DD"/>
<stop offset="0.9916" stop-color="#22A5AF"/>
</linearGradient>
<linearGradient id="paint28_linear_7937_4729" x1="1095.41" y1="319.179" x2="1121.47" y2="319.179" gradientUnits="userSpaceOnUse">
<stop stop-color="#5BD3DD"/>
<stop offset="0.9916" stop-color="#22A5AF"/>
</linearGradient>
<linearGradient id="paint29_linear_7937_4729" x1="1235.58" y1="250.4" x2="1261.64" y2="250.4" gradientUnits="userSpaceOnUse">
<stop stop-color="#5BD3DD"/>
<stop offset="0.9916" stop-color="#22A5AF"/>
</linearGradient>
<linearGradient id="paint30_linear_7937_4729" x1="1381.4" y1="235.942" x2="1416.2" y2="235.942" gradientUnits="userSpaceOnUse">
<stop stop-color="#5BD3DD"/>
<stop offset="0.9916" stop-color="#22A5AF"/>
</linearGradient>
<linearGradient id="paint31_linear_7937_4729" x1="198.251" y1="46.3526" x2="218.236" y2="46.3526" gradientUnits="userSpaceOnUse">
<stop stop-color="#5BD3DD"/>
<stop offset="0.9916" stop-color="#22A5AF"/>
</linearGradient>
<linearGradient id="paint32_linear_7937_4729" x1="643.032" y1="277.948" x2="658.628" y2="277.948" gradientUnits="userSpaceOnUse">
<stop stop-color="#5BD3DD"/>
<stop offset="0.9916" stop-color="#22A5AF"/>
</linearGradient>
<linearGradient id="paint33_linear_7937_4729" x1="1327.74" y1="462.876" x2="1328.44" y2="453.771" gradientUnits="userSpaceOnUse">
<stop stop-color="#188487"/>
<stop offset="0.9916" stop-color="#22A5AF"/>
</linearGradient>
<linearGradient id="paint34_linear_7937_4729" x1="1288.93" y1="451.294" x2="1296.42" y2="465.957" gradientUnits="userSpaceOnUse">
<stop stop-color="#22A5AF"/>
<stop offset="0.9916" stop-color="#47C3CD"/>
</linearGradient>
<linearGradient id="paint35_linear_7937_4729" x1="1298.83" y1="459.8" x2="1301.73" y2="470.102" gradientUnits="userSpaceOnUse">
<stop stop-color="#5BD3DD"/>
<stop offset="0.9916" stop-color="#22A5AF"/>
</linearGradient>
<linearGradient id="paint36_linear_7937_4729" x1="108.639" y1="59.6295" x2="110.079" y2="51.245" gradientUnits="userSpaceOnUse">
<stop stop-color="#188487"/>
<stop offset="0.9916" stop-color="#22A5AF"/>
</linearGradient>
<linearGradient id="paint37_linear_7937_4729" x1="147.936" y1="58.2806" x2="134.291" y2="70.0685" gradientUnits="userSpaceOnUse">
<stop stop-color="#22A5AF"/>
<stop offset="0.9916" stop-color="#47C3CD"/>
</linearGradient>
<linearGradient id="paint38_linear_7937_4729" x1="134.845" y1="63.3251" x2="128.638" y2="72.7272" gradientUnits="userSpaceOnUse">
<stop stop-color="#5BD3DD"/>
<stop offset="0.9916" stop-color="#22A5AF"/>
</linearGradient>
<linearGradient id="paint39_linear_7937_4729" x1="928.874" y1="207.519" x2="979.163" y2="246.805" gradientUnits="userSpaceOnUse">
<stop stop-color="#5BD3DD"/>
<stop offset="0.9916" stop-color="#22A5AF"/>
</linearGradient>
<linearGradient id="paint40_linear_7937_4729" x1="949.471" y1="283.917" x2="934.074" y2="235.351" gradientUnits="userSpaceOnUse">
<stop stop-color="#5BD3DD"/>
<stop offset="0.9916" stop-color="#22A5AF"/>
</linearGradient>
<linearGradient id="paint41_linear_7937_4729" x1="465.292" y1="223.662" x2="493.566" y2="251.074" gradientUnits="userSpaceOnUse">
<stop stop-color="#22A5AF"/>
<stop offset="0.9916" stop-color="#47C3CD"/>
</linearGradient>
<linearGradient id="paint42_linear_7937_4729" x1="448.306" y1="200.493" x2="485.96" y2="236.998" gradientUnits="userSpaceOnUse">
<stop stop-color="#188487"/>
<stop offset="0.9916" stop-color="#22A5AF"/>
</linearGradient>
<linearGradient id="paint43_linear_7937_4729" x1="228.063" y1="413.419" x2="248.048" y2="413.419" gradientUnits="userSpaceOnUse">
<stop stop-color="#5F6CAF"/>
<stop offset="1" stop-color="#7E91E0"/>
</linearGradient>
<linearGradient id="paint44_linear_7937_4729" x1="1011.26" y1="1000.95" x2="1440" y2="1000.95" gradientUnits="userSpaceOnUse">
<stop stop-color="#02FBFE"/>
<stop offset="0.5" stop-color="#F28706"/>
<stop offset="1"/>
</linearGradient>
<linearGradient id="paint45_linear_7937_4729" x1="747.999" y1="1000.95" x2="1176.74" y2="1000.95" gradientUnits="userSpaceOnUse">
<stop stop-color="#02FBFE"/>
<stop offset="0.5" stop-color="#F28706"/>
<stop offset="1"/>
</linearGradient>
<linearGradient id="paint46_linear_7937_4729" x1="1135.37" y1="956.053" x2="1564.11" y2="956.053" gradientUnits="userSpaceOnUse">
<stop stop-color="#02FBFE"/>
<stop offset="0.5" stop-color="#F28706"/>
<stop offset="1"/>
</linearGradient>
<linearGradient id="paint47_linear_7937_4729" x1="872.108" y1="956.053" x2="1300.85" y2="956.053" gradientUnits="userSpaceOnUse">
<stop stop-color="#02FBFE"/>
<stop offset="0.5" stop-color="#F28706"/>
<stop offset="1"/>
</linearGradient>
<linearGradient id="paint48_linear_7937_4729" x1="1259.48" y1="909.947" x2="1688.22" y2="909.947" gradientUnits="userSpaceOnUse">
<stop stop-color="#02FBFE"/>
<stop offset="0.5" stop-color="#F28706"/>
<stop offset="1"/>
</linearGradient>
<linearGradient id="paint49_linear_7937_4729" x1="996.218" y1="909.947" x2="1424.96" y2="909.947" gradientUnits="userSpaceOnUse">
<stop stop-color="#02FBFE"/>
<stop offset="0.5" stop-color="#F28706"/>
<stop offset="1"/>
</linearGradient>
<linearGradient id="paint50_linear_7937_4729" x1="1383.59" y1="865.053" x2="1812.32" y2="865.053" gradientUnits="userSpaceOnUse">
<stop stop-color="#02FBFE"/>
<stop offset="0.5" stop-color="#F28706"/>
<stop offset="1"/>
</linearGradient>
<linearGradient id="paint51_linear_7937_4729" x1="1120.33" y1="865.053" x2="1549.07" y2="865.053" gradientUnits="userSpaceOnUse">
<stop stop-color="#02FBFE"/>
<stop offset="0.5" stop-color="#F28706"/>
<stop offset="1"/>
</linearGradient>
<linearGradient id="paint52_linear_7937_4729" x1="1244.44" y1="818.947" x2="1673.18" y2="818.947" gradientUnits="userSpaceOnUse">
<stop stop-color="#02FBFE"/>
<stop offset="0.5" stop-color="#F28706"/>
<stop offset="1"/>
</linearGradient>
<linearGradient id="paint53_linear_7937_4729" x1="1368.54" y1="774.053" x2="1797.28" y2="774.053" gradientUnits="userSpaceOnUse">
<stop stop-color="#02FBFE"/>
<stop offset="0.5" stop-color="#F28706"/>
<stop offset="1"/>
</linearGradient>
<clipPath id="clip0_7937_4729">
<rect width="1440" height="1024" fill="white"/>
</clipPath>
<clipPath id="clip1_7937_4729">
<rect width="692" height="273" fill="white" transform="matrix(-1 0 0 -1 1440 1024)"/>
</clipPath>
</defs>
</svg>
