<svg width="273" height="79" viewBox="0 0 273 79" fill="none" xmlns="http://www.w3.org/2000/svg">
<path d="M121.634 1.03188C120.918 0.462871 120.127 0.176758 119.262 0.176758C118.397 0.176758 117.593 0.462871 116.86 1.03188C116.124 1.60089 115.758 2.4753 115.758 3.65189V36.529C115.758 37.6671 116.124 38.5318 116.86 39.1233C117.597 39.7116 118.394 40.0074 119.262 40.0074C120.13 40.0074 120.921 39.7149 121.634 39.1233C122.351 38.535 122.708 37.6703 122.708 36.529V3.65189C122.708 2.4753 122.351 1.60089 121.634 1.03188Z" fill="#59C8DD"/>
<path d="M159.217 15.1069C157.835 13.7406 156.212 12.6669 154.353 11.8857C152.495 11.1077 150.486 10.7188 148.326 10.7188C146.165 10.7188 144.153 11.1174 142.295 11.9146C140.437 12.7119 138.816 13.7952 137.431 15.1615C136.049 16.5278 134.965 18.1255 134.19 19.9483C133.412 21.771 133.023 23.7095 133.023 25.7605V48.0965C133.023 49.1992 133.374 50.035 134.078 50.604C134.779 51.173 135.57 51.4592 136.444 51.4592C137.318 51.4592 138.125 51.173 138.865 50.604C139.604 50.0318 139.977 49.196 139.977 48.0933V25.7187C139.977 24.3493 140.215 23.1598 140.691 22.1536C141.166 21.1474 141.793 20.2987 142.571 19.6139C143.349 18.9292 144.243 18.4148 145.249 18.0741C146.255 17.7333 147.271 17.5597 148.297 17.5597C149.322 17.5597 150.396 17.7333 151.402 18.0741C152.408 18.418 153.312 18.9324 154.109 19.6171C154.906 20.3051 155.543 21.1506 156.019 22.1632C156.494 23.1727 156.732 24.3653 156.732 25.738C156.732 26.8439 156.523 27.8919 156.105 28.882C155.688 29.8754 155.109 30.7402 154.366 31.486C153.624 32.2286 152.743 32.8201 151.717 33.2573C150.692 33.6945 149.57 33.9131 148.355 33.9131C148.242 33.9131 148.004 33.9034 147.641 33.8842C147.281 33.8649 146.879 33.9131 146.445 34.0256C146.008 34.1381 145.58 34.3407 145.162 34.6236C144.744 34.9097 144.423 35.3565 144.195 35.9609C143.889 36.7581 143.786 37.4622 143.88 38.0698C143.973 38.6773 144.24 39.1917 144.677 39.6096C145.114 40.0275 145.674 40.3426 146.358 40.5483C147.043 40.7573 147.821 40.8601 148.695 40.8601C150.177 40.8601 151.791 40.5548 153.54 39.9472C155.286 39.3396 156.906 38.4073 158.394 37.1568C159.883 35.903 161.137 34.3278 162.156 32.4279C163.172 30.528 163.683 28.3066 163.683 25.7605C163.683 23.6709 163.284 21.7164 162.487 19.8904C161.69 18.0676 160.6 16.4731 159.217 15.1037V15.1069Z" fill="#59C8DD"/>
<path d="M196.539 14.308C195.381 13.1314 194.057 12.2377 192.559 11.6301C191.061 11.0225 189.518 10.7171 187.923 10.7171C186.521 10.7171 185.126 10.9614 183.744 11.4533C182.362 11.9419 181.063 12.7167 179.848 13.7711L179.806 3.6479C179.806 2.4713 179.449 1.60011 178.732 1.0311C178.015 0.462094 177.224 0.179199 176.36 0.179199C175.495 0.179199 174.691 0.474955 173.958 1.06325C173.222 1.65155 172.855 2.51631 172.855 3.65754V36.5347C172.855 37.7113 173.212 38.5857 173.929 39.1547C174.646 39.7237 175.437 40.0098 176.302 40.0098C177.166 40.0098 177.97 39.7141 178.703 39.1258C179.436 38.5343 179.806 37.6695 179.806 36.5251V24.1869C179.806 23.0842 179.995 22.1198 180.378 21.3032C180.761 20.4835 181.275 19.7988 181.924 19.2458C182.574 18.6929 183.297 18.275 184.098 17.9888C184.898 17.7027 185.737 17.5613 186.615 17.5613C187.492 17.5613 188.283 17.706 189.103 17.9888C189.923 18.275 190.646 18.6929 191.276 19.2458C191.906 19.7988 192.421 20.4835 192.822 21.3032C193.224 22.123 193.424 23.0842 193.424 24.1869V36.5251C193.424 37.6695 193.79 38.5343 194.526 39.1258C195.259 39.7173 196.06 40.0098 196.928 40.0098C197.796 40.0098 198.586 39.7173 199.3 39.1258C200.017 38.5375 200.374 37.6727 200.374 36.5315V24.2222C200.374 22.1327 200.023 20.252 199.323 18.5804C198.622 16.9087 197.693 15.4846 196.535 14.308H196.539Z" fill="#59C8DD"/>
<path d="M239.007 19.9502C238.21 18.1275 237.12 16.5265 235.738 15.1474C234.355 13.7683 232.732 12.6849 230.874 11.9005C229.016 11.1161 227.006 10.7207 224.846 10.7207C222.686 10.7207 220.673 11.1193 218.815 11.9166C216.957 12.7139 215.346 13.7972 213.98 15.1635C212.614 16.5297 211.534 18.1275 210.74 19.9502C209.942 21.773 209.547 23.7115 209.547 25.7625C209.547 28.3471 210.055 30.5878 211.074 32.4877C212.09 34.3876 213.363 35.9532 214.89 37.1877C216.417 38.4221 218.066 39.3447 219.831 39.9523C221.596 40.5599 223.223 40.8653 224.701 40.8653C225.537 40.8653 226.305 40.7689 227.01 40.5792C227.714 40.3895 228.273 40.1034 228.691 39.7241C229.109 39.3448 229.376 38.8786 229.488 38.3289C229.604 37.7792 229.507 37.1427 229.202 36.4193C228.935 35.8118 228.604 35.3745 228.205 35.1077C227.807 34.8441 227.389 34.6705 226.952 34.5934C226.514 34.5162 226.106 34.5001 225.727 34.5355C225.347 34.5741 225.042 34.5934 224.814 34.5934C223.599 34.5934 222.477 34.3394 221.451 33.8283C220.426 33.3171 219.542 32.6452 218.802 31.8126C218.063 30.98 217.491 30.0445 217.092 28.9997C216.693 27.9581 216.494 26.8876 216.494 25.7914C216.494 24.3158 216.732 23.0267 217.208 21.9305C217.683 20.8311 218.323 19.9149 219.124 19.1755C219.924 18.4361 220.831 17.8896 221.84 17.5295C222.85 17.1695 223.888 16.9894 224.955 16.9894C226.023 16.9894 227.003 17.1695 228.016 17.5295C229.025 17.8896 229.912 18.4425 230.674 19.1819C231.436 19.9213 232.057 20.8439 232.532 21.9466C233.008 23.0492 233.246 24.3384 233.246 25.8203V37.0462C233.246 38.0717 233.613 38.84 234.349 39.3544C235.085 39.8688 235.882 40.1227 236.75 40.1227C237.618 40.1227 238.409 39.8655 239.123 39.3544C239.84 38.8433 240.196 38.0717 240.196 37.0462V25.8203C240.196 23.7308 239.798 21.7762 239.001 19.9502H239.007Z" fill="#59C8DD"/>
<path d="M87.2665 22.0435L86.2731 21.0533C74.1149 8.91769 67.65 1.77775 59.6806 0.360049C59.3527 0.302184 59.028 0.253956 58.7097 0.212164C58.6261 0.199305 58.5426 0.189669 58.4558 0.180025C58.1761 0.144663 57.8996 0.115724 57.6263 0.0932204C57.5878 0.0900057 57.546 0.0835833 57.5074 0.0803685C57.202 0.0546506 56.8998 0.0385726 56.6008 0.0257136C56.5237 0.0224989 56.4497 0.0192845 56.3726 0.0160698C56.125 0.00642556 55.8807 0.00321474 55.6396 0C55.601 0 55.5625 0 55.5239 0C55.5046 0 55.4885 0 55.4724 0C55.2153 0 54.9645 0.00320768 54.717 0.0128519C54.672 0.0128519 54.627 0.0160729 54.5819 0.0192877C54.3794 0.0257171 54.1801 0.0353602 53.984 0.0482191C53.9069 0.0546486 53.8297 0.0578594 53.7493 0.0642889C53.5854 0.0771479 53.4214 0.0900053 53.2639 0.102864C53.19 0.109294 53.116 0.115722 53.0421 0.122152C52.8588 0.14144 52.6788 0.160736 52.5052 0.180025C52.4634 0.186454 52.4216 0.189662 52.383 0.192877C52.1709 0.218595 51.9619 0.247533 51.7594 0.279681C51.7015 0.289325 51.6469 0.298965 51.589 0.305394C51.4411 0.327898 51.2997 0.350401 51.1582 0.376119C51.0939 0.385763 51.0296 0.398627 50.9653 0.411486C50.8303 0.437204 50.7017 0.459701 50.5731 0.485419C50.5185 0.495063 50.467 0.50471 50.4156 0.517569C50.242 0.552931 50.0716 0.588298 49.9109 0.62366C48.2553 0.983711 46.1432 1.64595 43.9218 2.91255C38.9164 5.77046 36.3928 9.97855 35.3383 12.0456C34.5732 13.5405 32.699 17.6682 32.8051 23.1654C32.699 28.6626 34.5764 32.7903 35.3383 34.2852C36.3928 36.3523 38.9164 40.5604 43.9218 43.4183C46.1432 44.6849 48.2521 45.3471 49.9109 45.7072C52.1548 46.2022 55.6428 46.6909 59.6838 45.9708C65.4061 44.9517 70.4018 40.9204 77.2429 34.2627L69.7396 26.7466C64.4609 32.1731 61.8441 34.6067 57.9221 35.2271C55.4917 35.6129 53.3861 35.1789 52.0037 34.761C46.7765 33.1986 43.2017 28.4247 43.2145 23.1654C43.1985 17.9061 46.7733 13.1322 52.0037 11.5698C52.158 11.5248 52.322 11.4766 52.4923 11.4316C52.5406 11.4188 52.5888 11.4059 52.637 11.393C52.7753 11.3577 52.9199 11.3223 53.0678 11.2902C53.116 11.2805 53.1642 11.2677 53.2125 11.258C53.4054 11.2162 53.6047 11.1776 53.8136 11.1423C53.8522 11.1359 53.8908 11.1294 53.9294 11.1262C54.1029 11.0973 54.283 11.0748 54.4662 11.0523C54.5305 11.0458 54.598 11.0362 54.6655 11.0298C54.8552 11.0105 55.0481 10.9944 55.2442 10.9815C55.286 10.9815 55.3278 10.9751 55.3728 10.9719C55.6043 10.959 55.8389 10.9558 56.08 10.959C56.2729 10.959 56.4722 10.9719 56.6716 10.9815C56.7744 10.988 56.8741 10.988 56.9802 10.9976C57.2888 11.0233 57.6006 11.0555 57.9189 11.1069C61.9341 11.7434 64.5638 14.2574 70.1029 19.9635C71.302 21.198 72.2921 22.2203 73.2115 23.1719L91.9022 41.8623L99.518 34.2466L88.3981 23.1686C88.0059 22.7797 87.6266 22.4035 87.2633 22.0435H87.2665Z" fill="#59C8DD"/>
<path d="M91.0537 5.32668L84.3477 12.0326C85.1096 12.7945 85.849 13.5307 86.6559 14.3408L89.8128 17.5009L91.9506 19.6291L98.6662 12.936L101.518 15.7874C102.257 10.6117 102.993 5.43599 103.733 0.260254C98.5569 0.996429 93.3812 1.73582 88.2054 2.472L91.0569 5.32347L91.0537 5.32668Z" fill="#59C8DD"/>
<path d="M1.9484 75.9516C1.75559 75.9516 1.60337 75.8958 1.49175 75.7842C1.38012 75.6624 1.32431 75.5051 1.32431 75.3123V65.7529C1.32431 65.5703 1.38012 65.4231 1.49175 65.3115C1.61352 65.1999 1.77082 65.144 1.96363 65.144H5.57122C6.69764 65.144 7.57036 65.418 8.18939 65.966C8.81856 66.514 9.13314 67.2903 9.13314 68.295C9.13314 69.2996 8.81856 70.081 8.18939 70.6392C7.56021 71.1973 6.68749 71.4764 5.57122 71.4764H2.5725V75.3123C2.5725 75.5051 2.51669 75.6624 2.40506 75.7842C2.29343 75.8958 2.14121 75.9516 1.9484 75.9516ZM5.44944 70.4413C7.08326 70.4413 7.90017 69.7258 7.90017 68.295C7.90017 66.8844 7.08326 66.1791 5.44944 66.1791H2.5725V70.4413H5.44944ZM13.7896 75.982C13.0894 75.982 12.4704 75.8247 11.9325 75.5102C11.4049 75.1956 10.9939 74.7491 10.6996 74.1706C10.4154 73.5821 10.2734 72.9021 10.2734 72.1309C10.2734 71.3597 10.4154 70.6848 10.6996 70.1064C10.9939 69.5178 11.4049 69.0662 11.9325 68.7516C12.4704 68.4371 13.0894 68.2798 13.7896 68.2798C14.4898 68.2798 15.1089 68.4371 15.6467 68.7516C16.1845 69.0662 16.5955 69.5178 16.8797 70.1064C17.174 70.6848 17.3211 71.3597 17.3211 72.1309C17.3211 72.9021 17.174 73.5821 16.8797 74.1706C16.5955 74.7491 16.1845 75.1956 15.6467 75.5102C15.1089 75.8247 14.4898 75.982 13.7896 75.982ZM13.7896 74.9622C14.5203 74.9622 15.0784 74.7237 15.464 74.2467C15.8598 73.7596 16.0577 73.0544 16.0577 72.1309C16.0577 71.2277 15.8598 70.5326 15.464 70.0455C15.0683 69.5482 14.5101 69.2996 13.7896 69.2996C13.0691 69.2996 12.511 69.5482 12.1152 70.0455C11.7194 70.5326 11.5216 71.2277 11.5216 72.1309C11.5216 73.0442 11.7144 73.7444 12.1 74.2315C12.4958 74.7186 13.059 74.9622 13.7896 74.9622ZM29.2068 68.706C29.3083 68.4624 29.4757 68.3406 29.7091 68.3406C29.8613 68.3406 29.9983 68.3914 30.1201 68.4929C30.2419 68.5943 30.3028 68.7212 30.3028 68.8734C30.3028 68.9444 30.2875 69.0206 30.2571 69.1017L27.7303 75.4949C27.6694 75.6269 27.578 75.7334 27.4563 75.8146C27.3446 75.8856 27.2178 75.9212 27.0757 75.9212C26.9438 75.9212 26.817 75.8856 26.6952 75.8146C26.5836 75.7334 26.4973 75.6269 26.4364 75.4949L24.3358 70.1521L22.2504 75.4949C22.1996 75.6269 22.1134 75.7334 21.9916 75.8146C21.8698 75.8856 21.7379 75.9212 21.5958 75.9212C21.4639 75.9212 21.3371 75.8856 21.2153 75.8146C21.0935 75.7334 21.0022 75.6269 20.9413 75.4949L18.4145 69.117C18.384 69.0358 18.3688 68.9647 18.3688 68.9039C18.3688 68.7415 18.4348 68.6045 18.5667 68.4929C18.7088 68.3812 18.861 68.3254 19.0233 68.3254C19.2669 68.3254 19.4394 68.4472 19.5409 68.6907L21.6263 74.3076L23.7726 68.7364C23.8335 68.6045 23.9146 68.503 24.0161 68.432C24.1277 68.3609 24.2445 68.3254 24.3662 68.3254C24.4981 68.3254 24.6149 68.3609 24.7163 68.432C24.828 68.503 24.9091 68.6045 24.9599 68.7364L27.1062 74.2924L29.2068 68.706ZM37.5322 74.1554C37.6438 74.1554 37.7403 74.2011 37.8214 74.2924C37.9026 74.3837 37.9432 74.5004 37.9432 74.6425C37.9432 74.8962 37.7656 75.1296 37.4104 75.3427C37.0451 75.5558 36.6595 75.7182 36.2536 75.8298C35.8477 75.9313 35.4519 75.982 35.0663 75.982C33.9196 75.982 33.0113 75.6421 32.3416 74.9622C31.6819 74.2823 31.3521 73.3436 31.3521 72.1461C31.3521 71.385 31.4993 70.7153 31.7936 70.1368C32.0879 69.5482 32.4988 69.0916 33.0265 68.7669C33.5644 68.4421 34.1733 68.2798 34.8532 68.2798C35.8172 68.2798 36.5834 68.5943 37.1517 69.2235C37.72 69.8527 38.0041 70.7051 38.0041 71.7808C38.0041 71.9838 37.9635 72.1309 37.8823 72.2222C37.8011 72.3136 37.6692 72.3592 37.4866 72.3592H32.5851C32.6764 74.1047 33.5035 74.9774 35.0663 74.9774C35.462 74.9774 35.802 74.9267 36.0861 74.8252C36.3703 74.7135 36.6747 74.5664 36.9995 74.3837C37.2633 74.2315 37.4409 74.1554 37.5322 74.1554ZM34.8684 69.2387C34.2189 69.2387 33.6963 69.4417 33.3005 69.8476C32.9149 70.2535 32.6866 70.8269 32.6155 71.5677H36.9233C36.903 70.8167 36.7153 70.2434 36.3601 69.8476C36.005 69.4417 35.5077 69.2387 34.8684 69.2387ZM43.4892 68.3102C43.9154 68.2798 44.1285 68.4523 44.1285 68.8277C44.1285 68.9901 44.0829 69.122 43.9915 69.2235C43.9002 69.3148 43.7429 69.3707 43.5197 69.391L43.063 69.4366C42.3831 69.4975 41.8757 69.7411 41.5408 70.1673C41.2161 70.5833 41.0537 71.0755 41.0537 71.6438V75.3427C41.0537 75.5457 40.9979 75.6979 40.8863 75.7994C40.7746 75.9009 40.6275 75.9516 40.4448 75.9516C40.2622 75.9516 40.11 75.9009 39.9882 75.7994C39.8766 75.6878 39.8207 75.5355 39.8207 75.3427V68.9191C39.8207 68.7263 39.8816 68.5791 40.0034 68.4776C40.1252 68.366 40.2723 68.3102 40.4448 68.3102C40.6072 68.3102 40.7442 68.366 40.8558 68.4776C40.9675 68.5791 41.0233 68.7212 41.0233 68.9039V69.7563C41.2364 69.3098 41.5357 68.9698 41.9214 68.7364C42.3171 68.503 42.7687 68.366 43.2761 68.3254L43.4892 68.3102ZM50.7771 74.1554C50.8887 74.1554 50.9851 74.2011 51.0663 74.2924C51.1475 74.3837 51.1881 74.5004 51.1881 74.6425C51.1881 74.8962 51.0105 75.1296 50.6553 75.3427C50.29 75.5558 49.9043 75.7182 49.4984 75.8298C49.0925 75.9313 48.6967 75.982 48.3111 75.982C47.1644 75.982 46.2562 75.6421 45.5864 74.9622C44.9268 74.2823 44.597 73.3436 44.597 72.1461C44.597 71.385 44.7441 70.7153 45.0384 70.1368C45.3327 69.5482 45.7437 69.0916 46.2714 68.7669C46.8092 68.4421 47.4181 68.2798 48.098 68.2798C49.0621 68.2798 49.8282 68.5943 50.3965 69.2235C50.9648 69.8527 51.2489 70.7051 51.2489 71.7808C51.2489 71.9838 51.2084 72.1309 51.1272 72.2222C51.046 72.3136 50.9141 72.3592 50.7314 72.3592H45.8299C45.9213 74.1047 46.7483 74.9774 48.3111 74.9774C48.7069 74.9774 49.0468 74.9267 49.331 74.8252C49.6151 74.7135 49.9196 74.5664 50.2443 74.3837C50.5081 74.2315 50.6857 74.1554 50.7771 74.1554ZM48.1132 69.2387C47.4638 69.2387 46.9411 69.4417 46.5454 69.8476C46.1598 70.2535 45.9314 70.8269 45.8604 71.5677H50.1682C50.1479 70.8167 49.9602 70.2434 49.605 69.8476C49.2498 69.4417 48.7526 69.2387 48.1132 69.2387ZM59.0173 65.0679C59.2102 65.0679 59.3624 65.1237 59.474 65.2354C59.5856 65.347 59.6414 65.4891 59.6414 65.6616V75.3427C59.6414 75.5254 59.5856 75.6725 59.474 75.7842C59.3624 75.8958 59.2102 75.9516 59.0173 75.9516C58.8245 75.9516 58.6723 75.8958 58.5607 75.7842C58.4592 75.6725 58.4085 75.5254 58.4085 75.3427V74.5207C58.1852 74.9875 57.8554 75.3478 57.419 75.6015C56.9928 75.8552 56.4905 75.982 55.9121 75.982C55.2626 75.982 54.6893 75.8197 54.192 75.4949C53.6948 75.1702 53.3091 74.7186 53.0351 74.1402C52.7611 73.5516 52.6241 72.8717 52.6241 72.1005C52.6241 71.3394 52.7611 70.6696 53.0351 70.0912C53.3091 69.5127 53.6948 69.0662 54.192 68.7516C54.6893 68.4371 55.2626 68.2798 55.9121 68.2798C56.4905 68.2798 56.9928 68.4066 57.419 68.6603C57.8554 68.914 58.1852 69.2743 58.4085 69.7411V65.6616C58.4085 65.4789 58.4592 65.3369 58.5607 65.2354C58.6723 65.1237 58.8245 65.0679 59.0173 65.0679ZM56.1556 74.9622C56.8761 74.9622 57.4292 74.7186 57.8148 74.2315C58.2106 73.7343 58.4085 73.0341 58.4085 72.1309C58.4085 71.2277 58.2106 70.5326 57.8148 70.0455C57.4292 69.5584 56.8761 69.3148 56.1556 69.3148C55.4351 69.3148 54.8719 69.5584 54.466 70.0455C54.0702 70.5326 53.8723 71.2176 53.8723 72.1005C53.8723 73.0036 54.0702 73.7089 54.466 74.2163C54.8719 74.7135 55.4351 74.9622 56.1556 74.9622ZM69.579 68.2798C70.2284 68.2798 70.8018 68.4371 71.299 68.7516C71.7963 69.0662 72.1819 69.5127 72.4559 70.0912C72.7299 70.6696 72.8669 71.3394 72.8669 72.1005C72.8669 72.8717 72.7299 73.5516 72.4559 74.1402C72.1819 74.7186 71.7963 75.1702 71.299 75.4949C70.8018 75.8197 70.2284 75.982 69.579 75.982C69.0005 75.982 68.4931 75.8552 68.0568 75.6015C67.6306 75.3478 67.3058 74.9875 67.0826 74.5207V75.3427C67.0826 75.5254 67.0268 75.6725 66.9151 75.7842C66.8137 75.8958 66.6665 75.9516 66.4737 75.9516C66.2809 75.9516 66.1287 75.8958 66.017 75.7842C65.9054 75.6725 65.8496 75.5254 65.8496 75.3427V65.6616C65.8496 65.4891 65.9054 65.347 66.017 65.2354C66.1287 65.1237 66.2809 65.0679 66.4737 65.0679C66.6665 65.0679 66.8137 65.1237 66.9151 65.2354C67.0268 65.3369 67.0826 65.4789 67.0826 65.6616V69.7411C67.3058 69.2743 67.6306 68.914 68.0568 68.6603C68.4931 68.4066 69.0005 68.2798 69.579 68.2798ZM69.3354 74.9622C70.0559 74.9622 70.6141 74.7135 71.0098 74.2163C71.4056 73.7089 71.6035 73.0036 71.6035 72.1005C71.6035 71.2176 71.4056 70.5326 71.0098 70.0455C70.6141 69.5584 70.0559 69.3148 69.3354 69.3148C68.6149 69.3148 68.0568 69.5584 67.661 70.0455C67.2754 70.5326 67.0826 71.2277 67.0826 72.1309C67.0826 73.0341 67.2754 73.7343 67.661 74.2315C68.0568 74.7186 68.6149 74.9622 69.3354 74.9622ZM79.9629 68.6907C80.0746 68.4472 80.2521 68.3254 80.4957 68.3254C80.6479 68.3254 80.7849 68.3762 80.9067 68.4776C81.0285 68.5791 81.0893 68.706 81.0893 68.8582C81.0893 68.9495 81.0691 69.0307 81.0285 69.1017L76.7511 78.3262C76.7004 78.4378 76.6243 78.5241 76.5228 78.585C76.4314 78.6459 76.335 78.6763 76.2336 78.6763C76.0813 78.6763 75.9443 78.6256 75.8226 78.5241C75.7109 78.4328 75.6551 78.311 75.6551 78.1588C75.6551 78.0776 75.6754 77.9964 75.716 77.9152L76.7815 75.6167L73.7676 69.1017C73.727 69.0307 73.7067 68.9546 73.7067 68.8734C73.7067 68.7212 73.7727 68.5893 73.9046 68.4776C74.0467 68.366 74.1989 68.3102 74.3613 68.3102C74.4627 68.3102 74.5591 68.3406 74.6505 68.4015C74.752 68.4624 74.8281 68.5487 74.8788 68.6603L77.4209 74.3685L79.9629 68.6907ZM87.1703 75.9516C86.9774 75.9516 86.8252 75.8958 86.7136 75.7842C86.602 75.6624 86.5462 75.5051 86.5462 75.3123V65.7529C86.5462 65.5703 86.602 65.4231 86.7136 65.3115C86.8354 65.1999 86.9927 65.144 87.1855 65.144H90.7931C91.9195 65.144 92.7922 65.418 93.4112 65.966C94.0404 66.514 94.355 67.2903 94.355 68.295C94.355 69.2996 94.0404 70.081 93.4112 70.6392C92.7821 71.1973 91.9093 71.4764 90.7931 71.4764H87.7944V75.3123C87.7944 75.5051 87.7385 75.6624 87.6269 75.7842C87.5153 75.8958 87.3631 75.9516 87.1703 75.9516ZM90.6713 70.4413C92.3051 70.4413 93.122 69.7258 93.122 68.295C93.122 66.8844 92.3051 66.1791 90.6713 66.1791H87.7944V70.4413H90.6713ZM99.3018 75.9516C99.109 75.9516 98.9517 75.8958 98.8299 75.7842C98.7183 75.6624 98.6624 75.5051 98.6624 75.3123V66.2096H95.3897C95.2071 66.2096 95.065 66.1639 94.9635 66.0726C94.862 65.9812 94.8113 65.8493 94.8113 65.6768C94.8113 65.5043 94.862 65.3724 94.9635 65.281C95.065 65.1897 95.2071 65.144 95.3897 65.144H103.199C103.381 65.144 103.523 65.1897 103.625 65.281C103.726 65.3724 103.777 65.5043 103.777 65.6768C103.777 65.8493 103.726 65.9812 103.625 66.0726C103.523 66.1639 103.381 66.2096 103.199 66.2096H99.9259V75.3123C99.9259 75.5051 99.87 75.6624 99.7584 75.7842C99.6468 75.8958 99.4946 75.9516 99.3018 75.9516ZM109.721 75.9516C109.528 75.9516 109.376 75.8958 109.264 75.7842C109.152 75.6624 109.097 75.5051 109.097 75.3123V65.7529C109.097 65.5703 109.152 65.4231 109.264 65.3115C109.386 65.1999 109.543 65.144 109.736 65.144H113.343C114.47 65.144 115.343 65.418 115.962 65.966C116.591 66.514 116.905 67.2903 116.905 68.295C116.905 69.2996 116.591 70.081 115.962 70.6392C115.332 71.1973 114.46 71.4764 113.343 71.4764H110.345V75.3123C110.345 75.5051 110.289 75.6624 110.177 75.7842C110.066 75.8958 109.913 75.9516 109.721 75.9516ZM113.222 70.4413C114.856 70.4413 115.672 69.7258 115.672 68.295C115.672 66.8844 114.856 66.1791 113.222 66.1791H110.345V70.4413H113.222ZM121.591 68.2798C123.448 68.2798 124.376 69.254 124.376 71.2024V75.3427C124.376 75.5254 124.32 75.6725 124.209 75.7842C124.107 75.8958 123.965 75.9516 123.783 75.9516C123.6 75.9516 123.453 75.8958 123.341 75.7842C123.229 75.6725 123.174 75.5254 123.174 75.3427V74.6121C122.981 75.0484 122.687 75.3884 122.291 75.6319C121.895 75.8653 121.438 75.982 120.921 75.982C120.444 75.982 120.002 75.8856 119.596 75.6928C119.201 75.5 118.886 75.2311 118.653 74.8861C118.419 74.541 118.303 74.1605 118.303 73.7444C118.303 73.1863 118.445 72.755 118.729 72.4506C119.013 72.136 119.48 71.9127 120.129 71.7808C120.779 71.6387 121.682 71.5677 122.839 71.5677H123.174V71.0654C123.174 70.4565 123.047 70.01 122.793 69.7258C122.55 69.4417 122.149 69.2996 121.591 69.2996C120.9 69.2996 120.2 69.4874 119.49 69.8628C119.216 70.0354 119.023 70.1216 118.912 70.1216C118.79 70.1216 118.688 70.0759 118.607 69.9846C118.526 69.8933 118.485 69.7766 118.485 69.6345C118.485 69.4924 118.526 69.3707 118.607 69.2692C118.698 69.1576 118.84 69.0459 119.033 68.9343C119.388 68.7313 119.789 68.574 120.236 68.4624C120.692 68.3406 121.144 68.2798 121.591 68.2798ZM121.088 75.0078C121.697 75.0078 122.194 74.8049 122.58 74.399C122.976 73.9829 123.174 73.4501 123.174 72.8007V72.3592H122.9C122.007 72.3592 121.327 72.3998 120.86 72.481C120.393 72.552 120.058 72.6789 119.855 72.8616C119.662 73.0341 119.566 73.2928 119.566 73.6379C119.566 74.0336 119.708 74.3634 119.992 74.6273C120.287 74.881 120.652 75.0078 121.088 75.0078ZM130.302 68.3102C130.728 68.2798 130.941 68.4523 130.941 68.8277C130.941 68.9901 130.895 69.122 130.804 69.2235C130.713 69.3148 130.555 69.3707 130.332 69.391L129.875 69.4366C129.196 69.4975 128.688 69.7411 128.353 70.1673C128.029 70.5833 127.866 71.0755 127.866 71.6438V75.3427C127.866 75.5457 127.81 75.6979 127.699 75.7994C127.587 75.9009 127.44 75.9516 127.257 75.9516C127.075 75.9516 126.922 75.9009 126.801 75.7994C126.689 75.6878 126.633 75.5355 126.633 75.3427V68.9191C126.633 68.7263 126.694 68.5791 126.816 68.4776C126.938 68.366 127.085 68.3102 127.257 68.3102C127.42 68.3102 127.557 68.366 127.668 68.4776C127.78 68.5791 127.836 68.7212 127.836 68.9039V69.7563C128.049 69.3098 128.348 68.9698 128.734 68.7364C129.13 68.503 129.581 68.366 130.089 68.3254L130.302 68.3102ZM134.969 68.2798C136.826 68.2798 137.755 69.254 137.755 71.2024V75.3427C137.755 75.5254 137.699 75.6725 137.587 75.7842C137.486 75.8958 137.344 75.9516 137.161 75.9516C136.978 75.9516 136.831 75.8958 136.72 75.7842C136.608 75.6725 136.552 75.5254 136.552 75.3427V74.6121C136.359 75.0484 136.065 75.3884 135.669 75.6319C135.274 75.8653 134.817 75.982 134.299 75.982C133.822 75.982 133.381 75.8856 132.975 75.6928C132.579 75.5 132.265 75.2311 132.031 74.8861C131.798 74.541 131.681 74.1605 131.681 73.7444C131.681 73.1863 131.823 72.755 132.107 72.4506C132.392 72.136 132.858 71.9127 133.508 71.7808C134.157 71.6387 135.061 71.5677 136.217 71.5677H136.552V71.0654C136.552 70.4565 136.425 70.01 136.172 69.7258C135.928 69.4417 135.527 69.2996 134.969 69.2996C134.279 69.2996 133.579 69.4874 132.869 69.8628C132.595 70.0354 132.402 70.1216 132.29 70.1216C132.168 70.1216 132.067 70.0759 131.986 69.9846C131.904 69.8933 131.864 69.7766 131.864 69.6345C131.864 69.4924 131.904 69.3707 131.986 69.2692C132.077 69.1576 132.219 69.0459 132.412 68.9343C132.767 68.7313 133.168 68.574 133.614 68.4624C134.071 68.3406 134.523 68.2798 134.969 68.2798ZM134.467 75.0078C135.076 75.0078 135.573 74.8049 135.959 74.399C136.354 73.9829 136.552 73.4501 136.552 72.8007V72.3592H136.278C135.385 72.3592 134.705 72.3998 134.239 72.481C133.772 72.552 133.437 72.6789 133.234 72.8616C133.041 73.0341 132.945 73.2928 132.945 73.6379C132.945 74.0336 133.087 74.3634 133.371 74.6273C133.665 74.881 134.03 75.0078 134.467 75.0078ZM148.262 68.2798C149.906 68.2798 150.728 69.259 150.728 71.2176V75.3427C150.728 75.5355 150.672 75.6878 150.561 75.7994C150.449 75.9009 150.302 75.9516 150.119 75.9516C149.936 75.9516 149.784 75.9009 149.662 75.7994C149.551 75.6878 149.495 75.5355 149.495 75.3427V71.248C149.495 70.5681 149.373 70.0759 149.13 69.7715C148.886 69.4671 148.506 69.3148 147.988 69.3148C147.369 69.3148 146.882 69.5229 146.527 69.9389C146.172 70.355 145.994 70.9182 145.994 71.6286V75.3427C145.994 75.5355 145.933 75.6878 145.811 75.7994C145.7 75.9009 145.553 75.9516 145.37 75.9516C145.187 75.9516 145.04 75.9009 144.928 75.7994C144.817 75.6878 144.761 75.5355 144.761 75.3427V71.248C144.761 70.5681 144.639 70.0759 144.396 69.7715C144.152 69.4671 143.767 69.3148 143.239 69.3148C142.63 69.3148 142.143 69.5229 141.778 69.9389C141.422 70.355 141.245 70.9182 141.245 71.6286V75.3427C141.245 75.5355 141.189 75.6878 141.077 75.7994C140.966 75.9009 140.819 75.9516 140.636 75.9516C140.453 75.9516 140.301 75.9009 140.179 75.7994C140.068 75.6878 140.012 75.5355 140.012 75.3427V68.9191C140.012 68.7364 140.068 68.5893 140.179 68.4776C140.301 68.366 140.453 68.3102 140.636 68.3102C140.808 68.3102 140.95 68.366 141.062 68.4776C141.174 68.5791 141.23 68.7212 141.23 68.9039V69.6345C141.453 69.1981 141.762 68.8633 142.158 68.6299C142.554 68.3965 143.011 68.2798 143.528 68.2798C144.685 68.2798 145.441 68.7669 145.796 69.7411C146.009 69.2946 146.334 68.9394 146.77 68.6755C147.207 68.4117 147.704 68.2798 148.262 68.2798ZM153.598 75.9516C153.416 75.9516 153.263 75.9009 153.142 75.7994C153.03 75.6878 152.974 75.5355 152.974 75.3427V68.9191C152.974 68.7263 153.03 68.5791 153.142 68.4776C153.263 68.366 153.416 68.3102 153.598 68.3102C153.781 68.3102 153.928 68.366 154.04 68.4776C154.151 68.5791 154.207 68.7263 154.207 68.9191V75.3427C154.207 75.5457 154.151 75.6979 154.04 75.7994C153.928 75.9009 153.781 75.9516 153.598 75.9516ZM153.598 66.7119C153.355 66.7119 153.157 66.6409 153.005 66.4988C152.852 66.3567 152.776 66.169 152.776 65.9356C152.776 65.7123 152.852 65.5297 153.005 65.3876C153.157 65.2455 153.355 65.1745 153.598 65.1745C153.842 65.1745 154.04 65.2455 154.192 65.3876C154.344 65.5297 154.42 65.7123 154.42 65.9356C154.42 66.169 154.344 66.3567 154.192 66.4988C154.04 66.6409 153.842 66.7119 153.598 66.7119ZM159.937 74.9774C160.292 75.0078 160.47 75.1702 160.47 75.4645C160.47 75.637 160.404 75.7689 160.272 75.8603C160.15 75.9414 159.962 75.9719 159.709 75.9516L159.298 75.9212C158.486 75.8603 157.887 75.6167 157.502 75.1905C157.116 74.7643 156.923 74.1199 156.923 73.2573V69.4366H155.903C155.731 69.4366 155.594 69.396 155.492 69.3148C155.401 69.2235 155.355 69.1068 155.355 68.9647C155.355 68.8125 155.401 68.6907 155.492 68.5994C155.594 68.5081 155.731 68.4624 155.903 68.4624H156.923V66.7423C156.923 66.5495 156.979 66.4024 157.091 66.3009C157.202 66.1893 157.354 66.1335 157.547 66.1335C157.73 66.1335 157.877 66.1893 157.989 66.3009C158.1 66.4024 158.156 66.5495 158.156 66.7423V68.4624H159.846C160.008 68.4624 160.135 68.5081 160.226 68.5994C160.328 68.6907 160.378 68.8125 160.378 68.9647C160.378 69.1068 160.328 69.2235 160.226 69.3148C160.135 69.396 160.008 69.4366 159.846 69.4366H158.156V73.3182C158.156 73.8763 158.268 74.2823 158.491 74.536C158.724 74.7795 159.069 74.9165 159.526 74.947L159.937 74.9774ZM165.354 68.3102C165.78 68.2798 165.993 68.4523 165.993 68.8277C165.993 68.9901 165.947 69.122 165.856 69.2235C165.765 69.3148 165.607 69.3707 165.384 69.391L164.927 69.4366C164.248 69.4975 163.74 69.7411 163.405 70.1673C163.081 70.5833 162.918 71.0755 162.918 71.6438V75.3427C162.918 75.5457 162.862 75.6979 162.751 75.7994C162.639 75.9009 162.492 75.9516 162.309 75.9516C162.127 75.9516 161.974 75.9009 161.853 75.7994C161.741 75.6878 161.685 75.5355 161.685 75.3427V68.9191C161.685 68.7263 161.746 68.5791 161.868 68.4776C161.99 68.366 162.137 68.3102 162.309 68.3102C162.472 68.3102 162.609 68.366 162.72 68.4776C162.832 68.5791 162.888 68.7212 162.888 68.9039V69.7563C163.101 69.3098 163.4 68.9698 163.786 68.7364C164.182 68.503 164.633 68.366 165.141 68.3254L165.354 68.3102ZM170.021 68.2798C171.878 68.2798 172.807 69.254 172.807 71.2024V75.3427C172.807 75.5254 172.751 75.6725 172.639 75.7842C172.538 75.8958 172.396 75.9516 172.213 75.9516C172.03 75.9516 171.883 75.8958 171.772 75.7842C171.66 75.6725 171.604 75.5254 171.604 75.3427V74.6121C171.411 75.0484 171.117 75.3884 170.721 75.6319C170.326 75.8653 169.869 75.982 169.351 75.982C168.874 75.982 168.433 75.8856 168.027 75.6928C167.631 75.5 167.317 75.2311 167.083 74.8861C166.85 74.541 166.733 74.1605 166.733 73.7444C166.733 73.1863 166.875 72.755 167.159 72.4506C167.444 72.136 167.91 71.9127 168.56 71.7808C169.209 71.6387 170.113 71.5677 171.269 71.5677H171.604V71.0654C171.604 70.4565 171.477 70.01 171.224 69.7258C170.98 69.4417 170.579 69.2996 170.021 69.2996C169.331 69.2996 168.631 69.4874 167.921 69.8628C167.647 70.0354 167.454 70.1216 167.342 70.1216C167.22 70.1216 167.119 70.0759 167.038 69.9846C166.957 69.8933 166.916 69.7766 166.916 69.6345C166.916 69.4924 166.957 69.3707 167.038 69.2692C167.129 69.1576 167.271 69.0459 167.464 68.9343C167.819 68.7313 168.22 68.574 168.666 68.4624C169.123 68.3406 169.575 68.2798 170.021 68.2798ZM169.519 75.0078C170.128 75.0078 170.625 74.8049 171.011 74.399C171.406 73.9829 171.604 73.4501 171.604 72.8007V72.3592H171.33C170.437 72.3592 169.757 72.3998 169.291 72.481C168.824 72.552 168.489 72.6789 168.286 72.8616C168.093 73.0341 167.997 73.2928 167.997 73.6379C167.997 74.0336 168.139 74.3634 168.423 74.6273C168.717 74.881 169.083 75.0078 169.519 75.0078ZM188.411 75.1601C188.451 75.2412 188.471 75.3275 188.471 75.4188C188.471 75.5711 188.411 75.6979 188.289 75.7994C188.177 75.9009 188.04 75.9516 187.878 75.9516C187.624 75.9516 187.446 75.8298 187.345 75.5863L186.264 73.1203H180.526L179.43 75.5863C179.328 75.8298 179.151 75.9516 178.897 75.9516C178.734 75.9516 178.592 75.9009 178.471 75.7994C178.349 75.6878 178.288 75.5558 178.288 75.4036C178.288 75.3224 178.308 75.2412 178.349 75.1601L182.702 65.4789C182.763 65.3369 182.855 65.2303 182.976 65.1593C183.098 65.0882 183.23 65.0527 183.372 65.0527C183.524 65.0527 183.661 65.0933 183.783 65.1745C183.905 65.2455 183.996 65.347 184.057 65.4789L188.411 75.1601ZM185.808 72.0852L183.387 66.6206L180.982 72.0852H185.808ZM190.672 75.9516C190.489 75.9516 190.337 75.9009 190.215 75.7994C190.104 75.6878 190.048 75.5355 190.048 75.3427V65.6768C190.048 65.484 190.104 65.3369 190.215 65.2354C190.337 65.1237 190.489 65.0679 190.672 65.0679C190.844 65.0679 190.987 65.1237 191.098 65.2354C191.22 65.3369 191.281 65.484 191.281 65.6768V75.3427C191.281 75.5355 191.22 75.6878 191.098 75.7994C190.987 75.9009 190.844 75.9516 190.672 75.9516ZM196.858 66.1182C196.321 66.1588 195.915 66.3314 195.641 66.6358C195.367 66.9301 195.23 67.3766 195.23 67.9753V68.4624H196.919C197.092 68.4624 197.224 68.5081 197.315 68.5994C197.406 68.6907 197.452 68.8125 197.452 68.9647C197.452 69.117 197.406 69.2337 197.315 69.3148C197.224 69.396 197.092 69.4366 196.919 69.4366H195.23V75.3427C195.23 75.5355 195.169 75.6878 195.047 75.7994C194.935 75.9009 194.793 75.9516 194.621 75.9516C194.438 75.9516 194.286 75.9009 194.164 75.7994C194.053 75.6878 193.997 75.5355 193.997 75.3427V69.4366H192.977C192.804 69.4366 192.667 69.396 192.566 69.3148C192.475 69.2235 192.429 69.1068 192.429 68.9647C192.429 68.8125 192.475 68.6907 192.566 68.5994C192.667 68.5081 192.804 68.4624 192.977 68.4624H193.997V68.1884C193.997 67.2751 194.225 66.5597 194.682 66.0421C195.138 65.5144 195.793 65.2202 196.645 65.1593L197.041 65.1288C197.305 65.1085 197.493 65.1339 197.604 65.2049C197.726 65.276 197.787 65.4028 197.787 65.5855C197.787 65.8798 197.609 66.0472 197.254 66.0878L196.858 66.1182ZM201.535 68.2798C203.392 68.2798 204.321 69.254 204.321 71.2024V75.3427C204.321 75.5254 204.265 75.6725 204.153 75.7842C204.052 75.8958 203.91 75.9516 203.727 75.9516C203.545 75.9516 203.397 75.8958 203.286 75.7842C203.174 75.6725 203.118 75.5254 203.118 75.3427V74.6121C202.926 75.0484 202.631 75.3884 202.235 75.6319C201.84 75.8653 201.383 75.982 200.866 75.982C200.389 75.982 199.947 75.8856 199.541 75.6928C199.145 75.5 198.831 75.2311 198.597 74.8861C198.364 74.541 198.247 74.1605 198.247 73.7444C198.247 73.1863 198.389 72.755 198.674 72.4506C198.958 72.136 199.425 71.9127 200.074 71.7808C200.723 71.6387 201.627 71.5677 202.783 71.5677H203.118V71.0654C203.118 70.4565 202.992 70.01 202.738 69.7258C202.494 69.4417 202.093 69.2996 201.535 69.2996C200.845 69.2996 200.145 69.4874 199.435 69.8628C199.161 70.0354 198.968 70.1216 198.856 70.1216C198.734 70.1216 198.633 70.0759 198.552 69.9846C198.471 69.8933 198.43 69.7766 198.43 69.6345C198.43 69.4924 198.471 69.3707 198.552 69.2692C198.643 69.1576 198.785 69.0459 198.978 68.9343C199.333 68.7313 199.734 68.574 200.181 68.4624C200.637 68.3406 201.089 68.2798 201.535 68.2798ZM201.033 75.0078C201.642 75.0078 202.139 74.8049 202.525 74.399C202.92 73.9829 203.118 73.4501 203.118 72.8007V72.3592H202.844C201.951 72.3592 201.271 72.3998 200.805 72.481C200.338 72.552 200.003 72.6789 199.8 72.8616C199.607 73.0341 199.511 73.2928 199.511 73.6379C199.511 74.0336 199.653 74.3634 199.937 74.6273C200.231 74.881 200.597 75.0078 201.033 75.0078ZM214.11 75.9973C213.349 75.9973 212.618 75.8856 211.918 75.6624C211.228 75.429 210.675 75.1195 210.259 74.7338C210.107 74.5918 210.03 74.4142 210.03 74.2011C210.03 74.059 210.071 73.9372 210.152 73.8358C210.233 73.7241 210.33 73.6683 210.441 73.6683C210.573 73.6683 210.715 73.7241 210.868 73.8358C211.811 74.5664 212.887 74.9317 214.095 74.9317C214.967 74.9317 215.637 74.7643 216.104 74.4294C216.571 74.0945 216.804 73.6176 216.804 72.9985C216.804 72.6434 216.693 72.3592 216.469 72.1461C216.246 71.9229 215.952 71.7453 215.586 71.6134C215.221 71.4814 214.729 71.3444 214.11 71.2024C213.278 71.0096 212.593 70.8066 212.055 70.5935C211.527 70.3804 211.096 70.0759 210.761 69.6802C210.436 69.2844 210.274 68.7669 210.274 68.1275C210.274 67.5187 210.436 66.9808 210.761 66.514C211.096 66.0371 211.558 65.6717 212.146 65.418C212.745 65.1542 213.425 65.0223 214.186 65.0223C214.896 65.0223 215.556 65.1339 216.165 65.3572C216.784 65.5703 217.301 65.8798 217.717 66.2857C217.88 66.4481 217.961 66.6256 217.961 66.8185C217.961 66.9605 217.92 67.0874 217.839 67.199C217.758 67.3005 217.662 67.3512 217.55 67.3512C217.438 67.3512 217.291 67.2954 217.109 67.1838C216.611 66.7779 216.15 66.4937 215.723 66.3314C215.297 66.169 214.785 66.0878 214.186 66.0878C213.344 66.0878 212.689 66.2654 212.222 66.6206C211.756 66.9656 211.522 67.4527 211.522 68.0819C211.522 68.6197 211.725 69.0256 212.131 69.2996C212.547 69.5635 213.181 69.7969 214.034 69.9998C214.957 70.2231 215.683 70.4311 216.21 70.6239C216.738 70.8066 217.175 71.0857 217.52 71.4611C217.875 71.8366 218.052 72.3389 218.052 72.9681C218.052 73.5668 217.885 74.0945 217.55 74.5512C217.225 75.0078 216.764 75.363 216.165 75.6167C215.566 75.8704 214.881 75.9973 214.11 75.9973ZM225.636 74.1554C225.747 74.1554 225.844 74.2011 225.925 74.2924C226.006 74.3837 226.047 74.5004 226.047 74.6425C226.047 74.8962 225.869 75.1296 225.514 75.3427C225.149 75.5558 224.763 75.7182 224.357 75.8298C223.951 75.9313 223.555 75.982 223.17 75.982C222.023 75.982 221.115 75.6421 220.445 74.9622C219.785 74.2823 219.456 73.3436 219.456 72.1461C219.456 71.385 219.603 70.7153 219.897 70.1368C220.191 69.5482 220.602 69.0916 221.13 68.7669C221.668 68.4421 222.277 68.2798 222.957 68.2798C223.921 68.2798 224.687 68.5943 225.255 69.2235C225.823 69.8527 226.108 70.7051 226.108 71.7808C226.108 71.9838 226.067 72.1309 225.986 72.2222C225.905 72.3136 225.773 72.3592 225.59 72.3592H220.689C220.78 74.1047 221.607 74.9774 223.17 74.9774C223.566 74.9774 223.905 74.9267 224.19 74.8252C224.474 74.7135 224.778 74.5664 225.103 74.3837C225.367 74.2315 225.544 74.1554 225.636 74.1554ZM222.972 69.2387C222.322 69.2387 221.8 69.4417 221.404 69.8476C221.018 70.2535 220.79 70.8269 220.719 71.5677H225.027C225.007 70.8167 224.819 70.2434 224.464 69.8476C224.108 69.4417 223.611 69.2387 222.972 69.2387ZM233.846 74.9013C234.008 75.0535 234.089 75.2159 234.089 75.3884C234.089 75.5406 234.033 75.6725 233.922 75.7842C233.82 75.8958 233.693 75.9516 233.541 75.9516C233.409 75.9516 233.272 75.8907 233.13 75.7689L229.157 72.344V75.3427C229.157 75.5355 229.096 75.6878 228.975 75.7994C228.863 75.9009 228.721 75.9516 228.548 75.9516C228.366 75.9516 228.213 75.9009 228.092 75.7994C227.98 75.6878 227.924 75.5355 227.924 75.3427V65.6768C227.924 65.484 227.98 65.3369 228.092 65.2354C228.213 65.1237 228.366 65.0679 228.548 65.0679C228.721 65.0679 228.863 65.1237 228.975 65.2354C229.096 65.3369 229.157 65.484 229.157 65.6768V71.8569L232.795 68.5233C232.917 68.4015 233.054 68.3406 233.206 68.3406C233.358 68.3406 233.49 68.3965 233.602 68.5081C233.714 68.6197 233.769 68.7516 233.769 68.9039C233.769 69.0764 233.698 69.2286 233.556 69.3605L230.558 72.0396L233.846 74.9013ZM241.167 68.3102C241.36 68.3102 241.507 68.366 241.609 68.4776C241.72 68.5893 241.776 68.7364 241.776 68.9191V75.3579C241.776 75.5305 241.72 75.6725 241.609 75.7842C241.507 75.8958 241.36 75.9516 241.167 75.9516C240.985 75.9516 240.837 75.9009 240.726 75.7994C240.624 75.6878 240.574 75.5457 240.574 75.3732V74.6121C240.34 75.0586 240.01 75.3985 239.584 75.6319C239.168 75.8653 238.696 75.982 238.169 75.982C237.286 75.982 236.621 75.7385 236.175 75.2514C235.728 74.7541 235.505 74.0235 235.505 73.0594V68.9191C235.505 68.7364 235.561 68.5893 235.672 68.4776C235.784 68.366 235.936 68.3102 236.129 68.3102C236.322 68.3102 236.469 68.366 236.57 68.4776C236.682 68.5893 236.738 68.7364 236.738 68.9191V73.029C236.738 73.6886 236.87 74.1757 237.133 74.4903C237.397 74.7947 237.813 74.947 238.382 74.947C239.031 74.947 239.554 74.7389 239.95 74.3229C240.345 73.8966 240.543 73.3385 240.543 72.6484V68.9191C240.543 68.7364 240.599 68.5893 240.711 68.4776C240.822 68.366 240.974 68.3102 241.167 68.3102ZM247.736 68.3102C248.162 68.2798 248.376 68.4523 248.376 68.8277C248.376 68.9901 248.33 69.122 248.239 69.2235C248.147 69.3148 247.99 69.3707 247.767 69.391L247.31 69.4366C246.63 69.4975 246.123 69.7411 245.788 70.1673C245.463 70.5833 245.301 71.0755 245.301 71.6438V75.3427C245.301 75.5457 245.245 75.6979 245.133 75.7994C245.022 75.9009 244.875 75.9516 244.692 75.9516C244.509 75.9516 244.357 75.9009 244.235 75.7994C244.124 75.6878 244.068 75.5355 244.068 75.3427V68.9191C244.068 68.7263 244.129 68.5791 244.25 68.4776C244.372 68.366 244.519 68.3102 244.692 68.3102C244.854 68.3102 244.991 68.366 245.103 68.4776C245.214 68.5791 245.27 68.7212 245.27 68.9039V69.7563C245.483 69.3098 245.783 68.9698 246.168 68.7364C246.564 68.503 247.016 68.366 247.523 68.3254L247.736 68.3102ZM250.058 75.9516C249.876 75.9516 249.723 75.9009 249.602 75.7994C249.49 75.6878 249.434 75.5355 249.434 75.3427V68.9191C249.434 68.7263 249.49 68.5791 249.602 68.4776C249.723 68.366 249.876 68.3102 250.058 68.3102C250.241 68.3102 250.388 68.366 250.5 68.4776C250.611 68.5791 250.667 68.7263 250.667 68.9191V75.3427C250.667 75.5457 250.611 75.6979 250.5 75.7994C250.388 75.9009 250.241 75.9516 250.058 75.9516ZM250.058 66.7119C249.815 66.7119 249.617 66.6409 249.465 66.4988C249.312 66.3567 249.236 66.169 249.236 65.9356C249.236 65.7123 249.312 65.5297 249.465 65.3876C249.617 65.2455 249.815 65.1745 250.058 65.1745C250.302 65.1745 250.5 65.2455 250.652 65.3876C250.804 65.5297 250.88 65.7123 250.88 65.9356C250.88 66.169 250.804 66.3567 250.652 66.4988C250.5 66.6409 250.302 66.7119 250.058 66.7119ZM256.397 74.9774C256.752 75.0078 256.93 75.1702 256.93 75.4645C256.93 75.637 256.864 75.7689 256.732 75.8603C256.61 75.9414 256.422 75.9719 256.169 75.9516L255.758 75.9212C254.946 75.8603 254.347 75.6167 253.961 75.1905C253.576 74.7643 253.383 74.1199 253.383 73.2573V69.4366H252.363C252.191 69.4366 252.054 69.396 251.952 69.3148C251.861 69.2235 251.815 69.1068 251.815 68.9647C251.815 68.8125 251.861 68.6907 251.952 68.5994C252.054 68.5081 252.191 68.4624 252.363 68.4624H253.383V66.7423C253.383 66.5495 253.439 66.4024 253.55 66.3009C253.662 66.1893 253.814 66.1335 254.007 66.1335C254.19 66.1335 254.337 66.1893 254.449 66.3009C254.56 66.4024 254.616 66.5495 254.616 66.7423V68.4624H256.306C256.468 68.4624 256.595 68.5081 256.686 68.5994C256.788 68.6907 256.838 68.8125 256.838 68.9647C256.838 69.1068 256.788 69.2235 256.686 69.3148C256.595 69.396 256.468 69.4366 256.306 69.4366H254.616V73.3182C254.616 73.8763 254.728 74.2823 254.951 74.536C255.184 74.7795 255.529 74.9165 255.986 74.947L256.397 74.9774ZM261.174 68.2798C263.031 68.2798 263.96 69.254 263.96 71.2024V75.3427C263.96 75.5254 263.904 75.6725 263.792 75.7842C263.691 75.8958 263.549 75.9516 263.366 75.9516C263.184 75.9516 263.036 75.8958 262.925 75.7842C262.813 75.6725 262.757 75.5254 262.757 75.3427V74.6121C262.564 75.0484 262.27 75.3884 261.874 75.6319C261.479 75.8653 261.022 75.982 260.504 75.982C260.028 75.982 259.586 75.8856 259.18 75.6928C258.784 75.5 258.47 75.2311 258.236 74.8861C258.003 74.541 257.886 74.1605 257.886 73.7444C257.886 73.1863 258.028 72.755 258.313 72.4506C258.597 72.136 259.063 71.9127 259.713 71.7808C260.362 71.6387 261.266 71.5677 262.422 71.5677H262.757V71.0654C262.757 70.4565 262.63 70.01 262.377 69.7258C262.133 69.4417 261.732 69.2996 261.174 69.2996C260.484 69.2996 259.784 69.4874 259.074 69.8628C258.8 70.0354 258.607 70.1216 258.495 70.1216C258.373 70.1216 258.272 70.0759 258.191 69.9846C258.11 69.8933 258.069 69.7766 258.069 69.6345C258.069 69.4924 258.11 69.3707 258.191 69.2692C258.282 69.1576 258.424 69.0459 258.617 68.9343C258.972 68.7313 259.373 68.574 259.819 68.4624C260.276 68.3406 260.728 68.2798 261.174 68.2798ZM260.672 75.0078C261.281 75.0078 261.778 74.8049 262.164 74.399C262.559 73.9829 262.757 73.4501 262.757 72.8007V72.3592H262.483C261.59 72.3592 260.91 72.3998 260.444 72.481C259.977 72.552 259.642 72.6789 259.439 72.8616C259.246 73.0341 259.15 73.2928 259.15 73.6379C259.15 74.0336 259.292 74.3634 259.576 74.6273C259.87 74.881 260.236 75.0078 260.672 75.0078ZM268.713 75.982C268.246 75.982 267.8 75.9262 267.374 75.8146C266.958 75.703 266.587 75.5457 266.263 75.3427C266.08 75.2209 265.948 75.1093 265.867 75.0078C265.796 74.8962 265.76 74.7643 265.76 74.6121C265.76 74.4801 265.796 74.3736 265.867 74.2924C265.948 74.2011 266.049 74.1554 266.171 74.1554C266.293 74.1554 266.471 74.2315 266.704 74.3837C267.008 74.5664 267.308 74.7135 267.602 74.8252C267.906 74.9267 268.282 74.9774 268.728 74.9774C269.276 74.9774 269.703 74.881 270.007 74.6882C270.312 74.4954 270.464 74.2163 270.464 73.851C270.464 73.6277 270.408 73.4501 270.296 73.3182C270.185 73.1761 269.992 73.0544 269.718 72.9529C269.444 72.8413 269.043 72.7296 268.515 72.618C267.622 72.4252 266.983 72.1664 266.597 71.8417C266.212 71.5169 266.019 71.0755 266.019 70.5174C266.019 70.081 266.141 69.6954 266.384 69.3605C266.628 69.0256 266.963 68.7618 267.389 68.569C267.825 68.3762 268.317 68.2798 268.865 68.2798C269.261 68.2798 269.642 68.3356 270.007 68.4472C270.383 68.5487 270.712 68.6958 270.997 68.8886C271.342 69.1322 271.514 69.3859 271.514 69.6497C271.514 69.7817 271.473 69.8933 271.392 69.9846C271.311 70.0759 271.215 70.1216 271.103 70.1216C270.981 70.1216 270.799 70.0354 270.555 69.8628C270.271 69.6802 270.002 69.5381 269.748 69.4366C269.495 69.3351 269.18 69.2844 268.805 69.2844C268.328 69.2844 267.942 69.391 267.648 69.6041C267.364 69.8172 267.221 70.1013 267.221 70.4565C267.221 70.6797 267.272 70.8624 267.374 71.0045C267.485 71.1364 267.663 71.2582 267.906 71.3698C268.16 71.4713 268.52 71.5728 268.987 71.6742C269.677 71.8265 270.21 71.9939 270.586 72.1766C270.971 72.3592 271.245 72.5825 271.408 72.8463C271.57 73.1102 271.651 73.4451 271.651 73.851C271.651 74.4903 271.382 75.0078 270.844 75.4036C270.306 75.7892 269.596 75.982 268.713 75.982Z" fill="white"/>
</svg>
